<?xml version="1.0" encoding="UTF-8" standalone="no"?>
<!-- Created with Inkscape (http://www.inkscape.org/) -->

<svg
   xmlns:dc="http://purl.org/dc/elements/1.1/"
   xmlns:cc="http://creativecommons.org/ns#"
   xmlns:rdf="http://www.w3.org/1999/02/22-rdf-syntax-ns#"
   xmlns:svg="http://www.w3.org/2000/svg"
   xmlns="http://www.w3.org/2000/svg"
   xmlns:sodipodi="http://sodipodi.sourceforge.net/DTD/sodipodi-0.dtd"
   xmlns:inkscape="http://www.inkscape.org/namespaces/inkscape"
   id="svg4225"
   version="1.1"
   inkscape:version="0.91 r13725"
   xml:space="preserve"
   width="1304.2373"
   height="350.93176"
   viewBox="0 0 1304.2373 350.93178"
   sodipodi:docname="idiomatic-rust.svg"><metadata
     id="metadata4231"><rdf:RDF><cc:Work
         rdf:about=""><dc:format>image/svg+xml</dc:format><dc:type
           rdf:resource="http://purl.org/dc/dcmitype/StillImage" /><dc:title></dc:title></cc:Work></rdf:RDF></metadata><defs
     id="defs4229"><clipPath
       clipPathUnits="userSpaceOnUse"
       id="clipPath4241"><path
         d="m 0.06,0 3968.44,0 0,3968.5 -3968.44,0 L 0.06,0 Z"
         id="path4243"
         inkscape:connector-curvature="0" /></clipPath></defs><sodipodi:namedview
     pagecolor="#ffffff"
     bordercolor="#666666"
     borderopacity="1"
     objecttolerance="10"
     gridtolerance="10"
     guidetolerance="10"
     inkscape:pageopacity="0"
     inkscape:pageshadow="2"
     inkscape:window-width="1442"
     inkscape:window-height="863"
     id="namedview4227"
     showgrid="false"
     inkscape:zoom="1"
     inkscape:cx="562.3485"
     inkscape:cy="167.5227"
     inkscape:window-x="0"
     inkscape:window-y="0"
     inkscape:window-maximized="0"
     inkscape:current-layer="g4233"
     fit-margin-top="0"
     fit-margin-left="0"
     fit-margin-right="0"
     fit-margin-bottom="0" /><g
     id="g4233"
     inkscape:groupmode="layer"
     inkscape:label="crab"
     transform="matrix(1.25,0,0,-1.25,-999.45139,6042.0311)"><g
       id="g4235" /><g
       id="g4319"
       transform="matrix(0.18469125,0,0,0.18469125,805.80726,3795.5875)"><path
         inkscape:connector-curvature="0"
         id="path4247"
         style="fill:#95423f;fill-opacity:1;fill-rule:nonzero;stroke:none"
         d="m 1737.6611,4846.9066 c 0.3794,-6.6385 1.3731,-13.2406 2.2811,-21.1357 17.7785,1.8812 34.5724,6.3044 48.8254,17.8981 2.6872,2.1846 5.2431,4.5372 7.9715,6.6625 8.4072,6.5368 8.6682,7.4044 4.585,17.2148 -5.077,12.2034 -7.8533,13.823 -19.9357,8.0116 -14.1382,-6.7988 -27.7712,-14.6705 -41.4142,-22.4389 -1.5091,-0.8592 -2.4317,-4.1331 -2.3131,-6.2124 z m -54.531,-39.2492 c 1.7413,0.3536 4.0542,0.9229 5.3081,0.1305 9.7342,-6.1577 19.7248,-1.8889 29.2875,-0.2172 3.2386,0.5668 7.4958,6.1626 7.9249,9.8528 1.141,9.746 0.9571,19.7458 0.2507,29.5693 -0.3762,5.2718 -4.4458,5.977 -9.3786,4.1277 -20.3545,-7.6296 -41.23,-13.1681 -63.0366,-14.6184 -1.1422,-0.076 -2.2705,-0.3598 -3.4113,-0.4699 -4.0276,-0.3903 -10.92,0.3513 -11.5634,-1.3199 -1.9738,-5.1453 -2.9437,-11.5706 -1.5703,-16.7801 0.8463,-3.2047 6.4507,-5.5619 10.3402,-7.4379 3.4707,-1.6755 7.4996,-2.2313 11.3129,-3.1635 2.6904,-0.6575 5.4278,-1.1173 8.1462,-1.6658 0.1159,-0.5356 0.238,-1.072 0.3601,-1.6085 5.3391,1.215 10.6645,2.5084 16.0296,3.6009 z m 41.1092,103.7666 c -2.2043,4.789 -4.8616,9.3669 -7.8116,14.9812 -13.5067,-5.3844 -26.1973,-10.8421 -39.1807,-15.4804 -8.8501,-3.1623 -18.191,-4.9348 -27.1231,-7.8883 -2.1201,-0.6989 -4.5305,-3.4248 -4.9914,-5.6013 -0.9391,-4.4303 -0.6786,-9.1217 -0.8258,-13.7082 -0.1418,-4.2883 2.1987,-5.9132 6.1758,-5.1377 21.4533,4.1909 42.9655,8.1423 64.3157,12.829 10.8899,2.3891 14.0768,9.929 9.4411,20.0057 z m -104.1867,-301.0337 c -1.0219,-3.4898 -1.835,-7.0405 -2.7255,-10.5677 2.7328,1.6784 5.703,3.0618 8.1496,5.0857 18.1763,15.0303 28.1056,35.667 37.2832,56.5669 2.9922,6.8312 3.5432,14.7579 4.9981,22.2257 0.9152,4.6983 -1.8278,5.8557 -5.6594,4.6206 -4.5809,-1.4759 -9.0036,-3.453 -12.006,-4.6266 -3.152,-11.0286 -5.5848,-20.768 -8.7528,-30.2591 -2.9111,-8.7385 -6.2554,-17.3778 -10.113,-25.7383 -2.4783,-5.3695 -6.2111,-10.1679 -9.4237,-15.1961 -0.4953,-0.7681 -1.517,-1.3055 -1.7505,-2.1111 z m -12.6789,137.4942 c -0.7391,-8.2851 2.2619,-13.4573 10.0492,-16.891 7.7986,-3.4415 14.3419,-8.6176 17.8716,-17.3462 2.7263,-6.7427 7.2819,-12.7778 11.358,-18.9058 0.9054,-1.3603 3.4056,-2.7378 4.8675,-2.4685 11.5335,2.1521 19.1587,15.2065 13.991,25.214 -5.5354,10.7376 -12.5016,20.7291 -18.7751,31.0876 -1.734,2.865 -3.5262,5.7577 -4.7494,8.848 -3.427,8.6642 -8.9819,15.2731 -17.205,19.8302 -5.276,-10.9731 -0.8447,-26.2086 -17.4078,-29.3683 z m -45.761,86.6518 c -6.017,-4.7769 -10.96,-10.9073 -17.6196,-17.7403 9.8546,-1.4114 18.9098,-2.6759 27.9484,-4.0127 8.4238,-1.2456 16.8018,-2.7686 25.2444,-3.7963 7.6485,-0.9313 15.3531,-1.6873 23.0446,-1.7539 1.7133,-0.015 4.6851,2.9844 4.981,4.921 1.4463,9.2739 2.1934,18.6568 3.1347,28.0069 0.7263,7.1973 -0.7497,8.9999 -7.9493,8.2478 -7.0927,-0.7426 -14.0797,-2.4843 -21.1706,-3.3452 -7.0405,-0.8563 -14.3849,-0.2327 -21.1505,-1.9905 -5.862,-1.5242 -11.6802,-4.7391 -16.4631,-8.5368 z m 26.6722,-38.9624 c -16.4583,-2.1242 -32.8253,-4.9559 -49.2397,-7.424 -14.0322,-2.1099 -27.7951,-7.4166 -42.3935,-3.3245 -1.7688,0.4958 -4.7207,-0.6727 -6.1752,-2.0618 -6.6361,-6.3652 -13.073,-12.946 -19.1612,-19.8249 -0.7851,-0.882 0.2698,-4.8432 1.6069,-5.793 1.8668,-1.3302 4.7914,-1.1772 7.271,-1.6567 17.5149,-4.8205 34.8085,-2.8097 52.0673,1.4313 11.6093,2.856 23.3368,5.0176 35.1615,1.6087 4.8409,-1.3957 9.3395,-3.9233 14.0575,-5.7861 2.5474,-1.005 5.1652,-2.1258 7.8408,-2.4531 13.3306,-1.617 20.3538,4.4131 20.2507,17.798 -0.042,6.1737 -0.9552,12.3827 -1.9889,18.4889 -0.8686,5.1751 -10.7481,10.1012 -19.2972,8.9972 z m 8.5076,103.2799 c -1.5536,-7.289 -4.4742,-16.1809 -4.772,-25.1607 -0.1019,-2.9682 6.1649,-8.0351 10.2034,-8.8708 8.6986,-1.8014 17.8474,-1.978 26.8036,-1.8933 8.9503,0.086 11.8767,4.5917 11.0073,13.4073 -0.5325,5.4397 0.1203,10.9955 0.2247,16.4986 0.057,2.9156 0.083,5.8314 0.1227,8.6686 -14.4964,-0.8805 -28.3157,-1.7208 -43.5897,-2.6497 z m -35.8332,-271.9016 c 8.4382,-0.7983 16.9506,-1.0353 25.4335,-0.9574 3.8643,0.031 6.1837,8.9784 3.4039,12.2232 -0.9741,1.1402 -2.0475,2.1952 -2.2015,2.3354 l 0,-0.01 c -0.021,0.028 -0.021,0.028 0,0.01 2.1209,3.612 4.1246,5.4507 4.1644,7.3346 0.5095,23.5211 -4.1489,46.2409 -11.1699,68.5656 -0.5563,1.7579 -0.989,3.5539 -1.5775,5.304 -0.4972,1.4759 -1.1379,2.904 -1.3814,3.5045 -6.9552,-5.8161 -13.8469,-11.5791 -21.2748,-17.7875 5.4124,-14.3747 7.5263,-30.5145 5.8099,-46.8393 -0.8792,-8.3956 -3.71,-16.6608 -6.3137,-24.772 -1.7422,-5.4377 0.1215,-8.4394 5.1071,-8.9111 z m -82.4095,-70.7706 c 0.6393,-0.5702 1.2786,-1.1404 1.9119,-1.7097 36.9144,12.5456 71.0904,29.6664 98.3995,59.7727 -8.8365,1.6634 -17.296,3.4405 -25.8342,4.7131 -1.6244,0.2451 -3.9534,-1.0872 -5.2651,-2.391 -5.5603,-5.5373 -11.0302,-11.1808 -16.2173,-17.0636 -13.314,-15.1051 -29.9885,-25.7261 -46.9527,-36.0694 -2.5466,-1.5497 -4.0547,-4.7895 -6.0421,-7.2521 z m -21.2275,188.0386 c -3.8877,-4.7512 -7.4369,-9.7871 -11.7383,-15.5607 18.1469,-6.3096 35.5653,-8.3753 53.3078,-9.0455 13.1362,-0.5014 26.2486,-1.7765 39.3602,-2.7965 5.0587,-0.3951 10.0826,-1.2079 15.1379,-1.5403 5.8489,-0.3901 10.6041,1.9993 12.9249,7.3977 2.2615,5.2452 4.029,10.7724 5.3179,16.3434 1.2043,5.1977 -2.1879,8.9405 -6.7367,9.4242 -9.4849,0.9979 -19.2735,2.1324 -28.6173,0.8602 -24.7842,-3.3622 -49.4543,-6.492 -74.4946,-3.2663 -1.4226,0.1788 -3.5556,-0.6966 -4.4618,-1.8162 z m -296.062,-135.3252 c -7.3412,-1.8451 -14.5972,-4.0193 -22.7503,-6.3386 8.5379,-12.3672 20.0463,-17.6328 30.9403,-23.2704 17.1413,-8.8693 34.7738,-16.7958 52.2771,-24.9525 2.2202,-1.0327 5.0382,-1.7533 7.3425,-1.3313 1.8326,0.3405 3.5327,2.4899 4.7324,4.2263 0.2446,0.3627 -1.6957,2.959 -3.0694,3.6095 -12.6461,6.0501 -25.3609,11.9671 -38.121,17.785 -7.219,3.2963 -13.3648,7.2593 -16.9448,15.0504 -2.3464,5.1034 -6.6592,9.3447 -10.3443,13.7634 -0.8167,0.9809 -2.8712,1.7599 -4.0625,1.4582 z m 96.3243,118.6883 c 2.8771,1.0797 5.8202,1.9697 9.2872,3.1327 -4.8745,5.0676 -9.5279,10.116 -14.472,14.8704 -1.0873,1.0445 -3.2354,1.5821 -4.8095,1.4409 -28.9745,-2.675 -57.9052,-4.25 -86.9877,-0.6877 -6.5523,0.8078 -13.6663,-1.1257 -20.2403,-2.8693 -6.0061,-1.5887 -8.315,-6.2491 -5.8969,-12.3883 2.1082,-5.3427 3.1948,-11.9997 7.0656,-15.4816 3.5768,-3.2222 10.3035,-4.2789 15.5468,-4.0539 12.8215,0.5567 25.5582,2.9032 38.3799,3.6091 21.3514,1.1748 42.0835,4.9308 62.1269,12.4277 z m -134.0143,-27.5226 c -2.9884,-15.6454 -7.1452,-31.2849 -7.8874,-47.0655 -0.5348,-11.3724 3.5882,-22.9892 5.8988,-34.4397 0.2033,-1.0112 2.4148,-2.3783 3.6148,-2.3015 8.4823,0.5255 17.0185,0.919 25.3883,2.2811 6.3216,1.0277 8.1565,6.4397 5.0364,12.2691 -3.8712,7.2423 -7.8033,14.4499 -11.5343,21.7591 -0.6877,1.3478 -1.3,3.5737 -0.6712,4.6273 7.0319,11.8279 5.3585,25.1636 7.2438,37.9152 1.1731,7.9308 -1.8017,10.6254 -8.6466,13.2529 -5.0102,1.9233 -8.8603,6.8691 -13.6041,10.7744 -1.6037,-6.2283 -3.5987,-12.5807 -4.8385,-19.0724 z m -21.1021,46.0522 c 9.5195,-0.9904 18.1638,-1.812 26.1468,4.1925 8.4018,6.3299 18.093,6.7072 28.3356,5.5448 11.3631,-1.2855 22.8788,-1.1758 34.3144,-1.8812 15.3366,-0.9472 29.845,3.8929 45.0636,6.5179 -13.0384,11.1657 -24.6718,22.9196 -44.0953,22.2207 -14.8318,-0.5361 -29.7986,3.1364 -44.727,4.7337 -11.0179,1.1739 -22.0612,2.5442 -33.1139,2.7597 -5.0139,0.097 -10.2499,-1.9568 -15.0681,-3.84 -4.5199,-1.7705 -6.5282,-5.5726 -4.9592,-11.3478 1.7047,2.1426 3.1566,3.9733 5.9643,7.5119 0.7925,-13.5017 1.4579,-24.8222 2.1388,-36.4122 z m -38.0499,237.2482 c -2.2087,1.0522 -4.0011,2.9803 -7.6365,5.9362 4.3356,0.9267 6.766,2.1555 8.6956,1.6113 1.2904,-0.3644 2.3636,-3.2002 2.5379,-5.0251 0.075,-0.7815 -2.8859,-2.8604 -3.597,-2.5224 z m 24.1097,-29.8515 c 1.9451,4.9145 3.6709,9.9817 4.764,15.1363 0.4864,2.2934 0.02,6.3829 -1.4394,7.2439 -13.1273,7.7544 -18.9239,20.7135 -23.9015,33.8487 -4.3181,11.3955 -7.1135,23.3847 -10.2871,35.1899 -1.5097,5.6163 -1.2988,10.7083 -10.25,11.0753 -9.6484,0.3948 -19.0527,4.9974 -28.7215,6.9987 -21.44613,4.4388 -42.22981,3.7732 -58.26788,-13.6313 -4.86823,-5.2833 -8.83459,-12.8408 -9.96554,-19.8783 -5.25352,-32.6808 1.9798,-62.1987 26.77905,-85.4219 5.27619,-4.9399 13.14284,-7.6589 20.28039,-9.9616 20.76098,-6.697 42.47738,-5.0479 63.86318,-6.4052 9.5511,-0.6059 19.0134,-2.5944 29.108,-4.0401 2.0663,5.8786 4.1935,11.9299 6.5234,18.5594 -1.1492,0.4735 -2.5114,1.0391 -3.8767,1.5964 -4.4832,1.8273 -6.6509,4.5289 -4.6084,9.6898 z m 12.6492,-62.0268 c -14.1055,8.8274 -30.9544,1.4852 -47.5181,6.4847 0.1926,-4.054 0.2911,-6.4866 0.426,-8.9162 0.3836,-6.8871 1.0652,-13.7721 1.1023,-20.6604 0.046,-8.4231 4.2115,-13.3425 12.2692,-11.7586 11.5419,2.2678 22.8932,5.6083 34.1624,9.0314 1.4283,0.4344 2.7704,4.2027 2.5931,6.2935 -0.5188,6.1202 -1.8268,12.1724 -3.0349,19.5256 z m 16.5999,-51.961 c -12.8552,1.3003 -25.7242,2.5343 -38.615,3.386 -9.7966,0.6447 -11.043,-1.0104 -9.2093,-10.6528 1.8435,-9.6867 3.7724,-19.3546 5.7081,-29.2659 26.4666,-10.9818 48.858,6.018 73.5541,10.3748 -0.2747,6.9012 -4.9569,10.3377 -9.0935,10.7188 -8.9969,0.8162 -12.5005,7.8821 -18.0126,12.7676 -1.2673,1.12 -2.8051,2.5212 -4.3318,2.6715 z m -57.1856,-92.0483 c -1.764,-9.2571 -7.1195,-16.0979 -12.0962,-23.571 -4.8842,-7.3309 -8.9136,-15.4804 -11.741,-23.8083 -0.9928,-2.922 2.3913,-7.6022 4.3669,-11.1545 0.9148,-1.6413 3.2247,-2.5253 4.9354,-3.7089 9.355,-6.4489 13.7462,-5.412 19.6804,4.6152 0.3526,0.5959 0.814,1.17 0.9858,1.8229 3.9984,15.1589 11.8218,27.3148 26.2716,34.6494 2.0249,1.0277 3.4726,3.7105 4.58,5.9263 2.9916,5.9984 1.8776,8.3582 -4.7291,9.4287 -5.4468,0.8795 -8.6473,3.3268 -9.8933,8.9439 -1.3823,6.2457 -3.5568,12.3064 -5.5841,19.1168 -8.9163,-5.0442 -14.8996,-12.4104 -16.7764,-22.2605 z m -31.4175,-58.215 c -1.4368,0.9517 -3.1599,1.4719 -5.722,2.6344 13.3898,-39.8819 38.9215,-71.0795 61.7561,-104.0848 5.8537,2.5429 8.2739,5.2978 4.8257,12.0693 -8.0264,15.756 -15.1283,31.9825 -22.5605,48.0387 -0.7698,1.6641 -1.6246,3.4337 -1.7827,5.2153 -0.9153,10.2748 -6.2852,17.0294 -15.2608,21.9572 -7.4368,4.0796 -14.1552,9.461 -21.2558,14.1699 z m -60.31732,140.743 c -0.0589,-7.8107 0.82024,-15.6252 1.33635,-23.4312 0.36896,-5.5784 3.35767,-8.8097 8.88089,-9.8244 5.6746,-1.0427 11.32576,-2.2188 19.40965,-3.8116 14.88553,-5.5939 30.25603,2.2056 45.94603,7.3673 4.3393,1.4297 8.2634,4.2303 12.6443,5.3992 5.4718,1.4602 5.8351,4.7521 5.271,9.3888 -1.646,13.4748 -1.5522,13.1878 -15.2654,13.3929 -22.5166,0.3407 -44.5646,3.9707 -66.16781,10.39 -10.88433,3.2308 -11.97049,2.5472 -12.05501,-8.871 z m 1.13321,56.3635 c 17.30337,-5.6593 34.70811,-10.7581 53.22951,-10.5429 7.7824,0.091 15.5752,-0.7134 25.1857,-1.2034 -1.0454,7.2739 -1.8898,13.9162 -3.0827,20.4946 -0.1557,0.8614 -2.0156,1.6803 -3.2283,2.0442 -20.9605,6.2849 -41.9418,12.5026 -62.92684,18.7071 -1.52587,0.4516 -3.11542,0.6886 -6.05232,1.3218 -2.73507,-7.64 -5.17447,-14.7778 -7.85207,-21.8256 -1.88149,-4.9522 0.56071,-7.6334 4.72702,-8.9958 z m -81.80025,-43.033 c 0.22857,-2.2579 1.95325,-4.7238 3.65758,-6.4161 15.29767,-15.1938 34.75956,-21.3747 55.32668,-24.8424 2.77111,-0.4714 5.81827,0.6896 8.71107,1.0895 0.36499,8.0776 0.98879,14.9807 0.80344,21.863 -0.0575,2.1464 -1.78609,5.2531 -3.62773,6.1819 -13.38219,6.7646 -26.98929,13.0829 -40.52394,19.5468 -0.20845,0.098 -0.39773,0.2435 -0.60975,0.3297 -14.37559,6.0865 -25.33309,-1.9912 -23.73735,-17.7524 z m -88.62853,58.2398 c 22.46675,-24.7842 53.76333,-34.1829 77.47374,-57.0276 3.88632,8.804 7.2463,16.4154 10.26379,23.2498 -9.3709,4.0334 -17.50351,7.1001 -25.23802,10.9631 -12.16869,6.0806 -23.96278,12.9105 -36.13224,18.99 -5.31738,2.656 -11.05601,4.7185 -16.83161,6.0889 -2.50359,0.5948 -5.5837,-1.239 -9.53566,-2.2642 z m 73.43577,71.1366 c 1.0265,1.5038 2.01072,3.0379 3.38348,5.1193 -20.50788,18.0078 -38.02059,38.4887 -51.02838,62.7101 -0.92624,-0.6822 -1.85307,-1.3643 -2.77931,-2.0465 11.85957,-25.7202 24.3442,-51.034 47.38221,-70.0891 1.02143,1.4425 2.05407,2.859 3.042,4.3062 z m 59.65565,-37.1948 c -12.5672,8.788 -24.09312,19.0658 -36.04806,28.7263 -3.32912,2.6902 -6.60974,5.4412 -9.4304,7.7669 -1.30369,-0.423 -1.59649,-0.4277 -1.73333,-0.5759 -12.94507,-14.0745 -13.57327,-17.671 2.35202,-30.9128 18.10084,-15.0507 36.15433,-30.1587 54.30095,-45.1544 2.11136,-1.7451 4.57044,-3.18 7.06713,-4.3263 4.8447,-2.2241 8.40985,-0.081 9.49078,5.2578 1.32054,6.5211 3.00321,12.9799 4.00321,19.5457 0.24429,1.6059 -1.09055,4.3852 -2.50241,5.1598 -9.09464,4.9902 -19.07617,8.6225 -27.49989,14.5129 z m 84.24137,292.5507 c -3.26,-0.4859 -6.5198,-0.9706 -9.7792,-1.4567 -0.2566,0.8995 -0.5132,1.7983 -0.7697,2.6978 2.827,4.6365 6.5881,2.3631 10.2129,1.0993 0.1121,-0.7793 0.2241,-1.5599 0.336,-2.3404 z m -13.8529,-20.7089 c 0.5501,0.6472 1.1002,1.2938 1.6504,1.941 2.1278,-1.0307 5.2554,-1.5389 6.1356,-3.2226 1.1548,-2.2091 0.5374,-5.344 0.6825,-8.0804 -0.9105,-0.1953 -1.8211,-0.3905 -2.7317,-0.5858 -1.9119,3.3157 -3.8243,6.6321 -5.7368,9.9478 z m -4.61158,-24.6137 c -2.98496,0.289 -5.09826,0.4928 -7.21216,0.6967 1.239,4.2549 2.47799,8.5097 3.71629,12.764 0.84304,-0.094 1.68659,-0.1887 2.52963,-0.2827 0.29789,-4.061 0.59578,-8.122 0.96624,-13.178 z m -9.7232,-15.4216 c 3.66651,0.4035 7.38134,0.3674 11.08289,0.4558 -0.005,-1.4935 -0.009,-2.9871 -0.0139,-4.4807 -3.91393,-0.052 -7.82788,-0.1046 -11.74182,-0.1569 0.21744,1.4575 0.30026,4.1407 0.67287,4.1818 z m 231.27538,104.8997 c 8.7836,13.7128 16.0195,28.6969 17.4104,45.5481 0.1424,1.7281 -0.1942,3.4961 -0.4493,7.3912 -8.7381,-10.4393 -16.3463,-19.3349 -23.7157,-28.4244 -3.0452,-3.7557 -5.6213,-7.8992 -8.3331,-11.9176 -2.5887,-3.8359 -5.4061,-6.4867 -10.7797,-5.8339 -2.0289,0.2464 -5.3137,-1.8924 -6.473,-3.859 -4.4467,-7.544 -8.2757,-15.4531 -12.3061,-23.2407 -1.1646,-2.251 -2.2361,-4.5508 -3.3423,-6.8326 -2.6628,-5.4905 -6.4588,-6.4553 -11.883,-3.6075 -10.1506,5.3292 -11.7115,4.8938 -19.4903,-3.6609 -7.7528,-8.525 -15.3448,-17.2072 -23.3814,-25.4572 -3.1559,-3.2394 -6.988,-6.5523 -11.1363,-7.8763 -3.6642,-1.169 -9.6391,-1.1032 -11.9475,1.1405 -2.4028,2.3362 -2.0782,7.9315 -2.0928,12.1042 -0.01,2.6136 2.1733,5.197 2.3236,7.8525 1.4619,25.8746 12.3603,48.6388 23.5863,71.2032 5.4886,11.034 13.4057,20.1812 23.4871,27.7965 6.6733,5.041 11.8531,12.1481 17.362,18.6194 6.0275,7.0809 14.4423,8.7622 22.7344,10.4157 7.9007,1.576 16.0266,1.991 23.9791,3.3476 6.4642,1.1029 12.8198,2.8449 19.5892,4.3864 -1.6787,7.0446 -6.5168,8.8936 -11.3536,9.9573 -24.0942,5.3011 -47.992,4.1695 -70.7904,-5.3252 -16.5554,-6.8944 -33.2121,-14.2144 -48.3549,-23.6924 -30.2016,-18.9032 -51.4692,-46.57 -69.8344,-76.6253 -2.2186,-3.6304 -1.8294,-5.7608 1.0756,-8.8775 8.167,-8.7594 15.3931,-18.2511 19.0057,-30.8838 9.1783,4.0569 19.135,9.7906 27.4587,-2.145 -0.6701,-0.4653 -1.2496,-0.9653 -1.3195,-0.9025 -7.5927,6.8754 -13.6621,2.2973 -19.7079,-2.5676 -1.2596,-1.0136 -2.4538,-2.1907 -3.8724,-2.9087 -5.2704,-2.6662 -9.2909,-0.3817 -9.6538,5.4607 -0.2752,4.4318 -1.574,7.4285 -5.5497,10.6904 -6.8483,5.6195 -11.9887,13.2916 -18.0053,19.9573 -6.7161,7.4415 -9.0115,8.0102 -14.1897,-0.2446 -7.43233,-11.847 -14.30265,-24.3091 -19.41375,-37.2947 -10.81782,-27.4871 -19.84437,-55.6776 -30.61825,-83.1834 -4.94277,-12.6176 -12.18316,-24.3479 -18.54873,-36.3931 -7.81392,-14.7846 -5.9388,-36.0336 4.77434,-49.9729 0.70731,0.4426 1.73982,0.7255 2.12848,1.3865 9.89615,16.8202 26.23142,22.7592 44.09544,24.5603 19.66387,1.9822 39.15867,-0.2404 57.82997,-7.376 3.2093,-1.2272 6.2972,-2.7721 8.2032,-3.62 3.5996,1.9626 6.2429,4.5569 9.0437,4.74 15.8759,1.0386 27.519,9.8896 38.6894,19.8619 24.218,21.6205 39.4007,48.8367 48.0839,79.6857 2.9988,10.6534 8.4304,18.7071 17.0032,25.2109 2.9189,2.2141 5.8606,4.7086 7.9367,7.6738 17.1122,24.4444 34.658,48.6221 50.7424,73.7327 z m 218.5975,-185.9507 c 13.5346,-0.193 25.3274,-4.1283 36.6217,-10.5896 3.2917,-1.8835 5.4654,-6.2791 8.8395,-7.3708 15.3145,-4.9511 22.2994,-20.1937 35.5331,-27.7395 -12.3058,1.3086 -21.7052,7.5905 -31.0902,14.8413 -9.4576,7.3076 -19.7667,14.3122 -30.82,18.5076 -8.4828,3.2206 -18.9727,3.5811 -28.094,2.1707 -14.937,-2.308 -27.6803,4.0177 -41.1395,7.4712 -4.0108,1.0294 -7.0836,2.2284 -10.9809,-0.03 -1.7422,-1.0109 -4.3766,-0.4838 -7.9274,-0.7559 3.7589,6.3254 7.4322,9.2762 12.5917,7.5012 18.4876,-6.3609 37.6406,-3.7362 56.466,-4.0064 z m -60.4412,29.5012 c -9.1444,-2.7876 -18.159,-6.1875 -27.4767,-8.1447 -6.0431,-1.2702 -12.5307,-0.4356 -18.8177,-0.5439 0.079,0.1627 0.1646,0.3245 0.2499,0.4863 15.3374,3.237 30.6808,6.4732 46.0242,9.7094 0,-0.5014 0.012,-1.0049 0.02,-1.5071 z m -44.8017,-34.0274 c -3.8736,0.5548 -6.1219,0.8706 -8.3624,1.1977 -2.6058,0.38 -5.42,1.6053 -7.7746,1.0053 -8.2327,-2.1071 -16.2001,-5.3554 -24.4892,-7.1617 -5.9412,-1.2959 -12.2344,-1.0137 -18.3713,-1.3767 -10.1173,-0.5965 -20.2465,-1.0633 -30.3525,-1.8026 -1.4302,-0.1047 -2.791,-1.3991 -4.1505,-2.1989 -5.908,-3.4773 -11.8549,-6.8926 -17.684,-10.5 -3.0641,-1.8957 -6.1891,-3.843 -8.8087,-6.2803 -8.6918,-8.0897 -18.5411,-13.6901 -30.6511,-15.1723 4.9827,5.0761 11.7911,8.4003 15.7597,13.8075 7.8585,10.7083 20.376,14.3367 30.1792,22.0061 15.7429,12.3183 35.6931,11.6303 54.2312,10.1787 12.5636,-0.9839 24.0372,1.8356 35.88,3.5873 6.09,0.9029 10.2956,0.149 14.594,-7.2913 z m -147.8238,-89.096 c -0.5185,-8.06 -6.5813,-10.9216 -14.4361,-7.2775 1.1452,7.7098 1.9622,8.1372 14.4361,7.2775 z m -13.262,-122.8672 c 5.8534,-0.068 10.385,-2.7074 11.7859,-8.6928 1.8531,-7.9186 7.2027,-10.3324 14.5799,-11.131 3.9104,-0.4233 8.7114,-1.5205 11.2141,-4.1308 4.7324,-4.9354 8.1755,-4.204 13.6572,-1.294 4.8825,2.5919 10.8333,7.4833 16.1285,1.2746 3.7797,1.9579 7.2841,3.7726 11.6081,6.0156 -3.8604,-13.9791 -16.4473,-20.6655 -24.8064,-14.1808 -4.6315,-1.9031 -9.3375,-3.7974 -14.011,-5.7678 -5.4234,-2.285 -10.2331,-2.8548 -15.3512,1.6224 -2.8954,2.5329 -7.425,4.1537 -11.3285,4.3952 -10.704,0.6622 -15.7809,6.729 -18.7235,16.1977 -0.7271,2.3399 -3.4792,4.3202 -5.7167,5.8614 -3.9392,2.7135 -10.6794,4.1189 -11.8519,7.5674 -3.2762,9.6345 -15.484,14.9127 -12.983,27.0943 0.1335,0.6497 -0.6504,1.8857 -1.3265,2.2424 -9.0108,4.7469 -7.6372,12.8497 -6.5127,20.6446 0.657,4.5532 1.6047,8.5097 -2.475,12.4082 -1.6664,1.5924 -1.8696,5.7287 -1.3221,8.4193 1.2675,6.2285 3.3998,12.281 5.2892,18.7772 -5.0982,-0.7697 -5.7968,2.9105 -4.4294,6.7859 1.7875,5.0682 4.1179,10.0437 6.9129,14.6344 4.3067,7.0737 11.3614,13.2199 13.3505,20.7853 3.0005,11.4158 10.9515,17.4665 18.938,24.0946 1.9194,1.5935 4.5889,2.2828 6.9139,3.388 0.4184,-0.4248 0.8362,-0.8489 1.2541,-1.2729 -4.4793,-9.3381 -8.4067,-18.9971 -13.5934,-27.9237 -5.2287,-8.9978 -11.7081,-17.2681 -18.2341,-26.7184 7.6545,-0.3336 7.4925,-3.9732 5.5977,-8.4759 -1.2517,-2.9764 -2.9286,-5.8837 -3.5469,-8.9943 -1.299,-6.5311 -7.7359,-13.0772 0.2585,-19.9167 1.4939,-1.2781 0.5001,-5.7085 0.2969,-8.6591 -0.2364,-3.4431 -1.3956,-6.8977 -1.1552,-10.2754 0.1897,-2.6638 1.2507,-6.7781 3.048,-7.5172 4.4563,-1.8329 5.1409,-4.7522 4.9136,-8.6956 -0.3466,-6.0093 1.5925,-11.1444 3.7662,-16.8551 3.5481,-9.32 9.3105,-11.6071 17.8543,-11.707 z m 31.2165,-54.247 c 0.1942,0.6876 0.3868,1.3686 0.5809,2.0555 4.0149,-0.5749 8.2557,-0.5234 11.9973,-1.8611 6.9199,-2.4772 13.3187,-6.5698 20.3426,-8.5639 16.6499,-4.7403 31.2708,-12.018 40.7976,-27.2616 1.1984,-1.9182 2.8552,-4.2377 4.7953,-4.8823 8.7003,-2.8745 12.5662,-10.3833 17.441,-17.011 1.081,-1.4787 2.4162,-2.7888 3.7079,-4.0988 9.6262,-9.8193 19.0017,-20.0005 33.3264,-23.0527 0.3672,-0.084 0.6289,-0.6432 0.9412,-0.9801 0.099,-0.9154 0.1977,-1.8308 0.2966,-2.7463 -5.1514,-0.642 -10.398,-2.2525 -15.4358,-1.7548 -17.6752,1.7483 -27.8382,14.4601 -37.8454,27.2179 -2.9275,3.7322 -6.0595,7.3382 -9.3413,10.7668 -2.6756,2.8011 -6.1135,4.9219 -8.5001,7.9177 -9.1071,11.4045 -21.0853,18.9066 -33.5238,26.0147 -10.0544,5.7411 -19.7339,12.1371 -29.5804,18.24 z m 132.0266,-65.2264 c -4.6224,-0.8547 -8.4025,-1.5564 -13.7281,-2.5464 4.0871,7.5756 8.1073,8.1746 13.7281,2.5464 z m 8.2289,284.7394 c 0.3006,-7.7522 0.6265,-15.5023 0.8896,-23.256 0.5971,-17.9215 0.521,-35.8989 2.0302,-53.7441 0.679,-8.1053 4.9521,-15.8962 -0.2669,-23.9543 -0.7432,-1.1528 -0.3171,-3.1687 -0.1916,-4.766 0.624,-7.9687 2.0051,-15.9453 1.8549,-23.8945 -0.2362,-13.1935 -1.4395,-26.3695 -2.2398,-39.5524 -0.7632,0.01 -1.5264,0.019 -2.2836,0.026 -11.9616,56.1379 -15.4275,112.4428 0.2072,169.141 z m 21.5922,-131.8934 c -1.5617,-12.0327 -3.1543,-24.1082 -3.6881,-36.2111 -0.3405,-7.7591 1.2657,-15.5963 1.8685,-23.4092 0.1486,-1.8697 -0.2242,-3.7786 -0.3583,-5.6694 -0.6951,-0.123 -1.3962,-0.2444 -2.0973,-0.366 -0.5334,1.3532 -1.4255,2.6755 -1.5556,4.0672 -0.6419,7.1055 -1.0948,14.2293 -1.6105,21.3478 -1.613,22.1985 -5.4591,44.3408 -1.3838,66.6774 0.4363,2.3952 0.5635,5.4965 -0.5915,7.4141 -3.941,6.5506 -2.3168,12.8567 -0.4354,19.397 0.9525,3.3088 1.9239,6.7498 1.9944,10.1502 0.3294,16.1007 0.2312,32.2105 0.5422,48.3132 0.1385,7.1734 0.897,14.3357 1.3764,21.5019 0.8012,-0.01 1.6084,-0.01 2.4156,-0.015 0.2591,-2.3574 0.4737,-4.7214 0.7899,-7.0707 0.9251,-6.864 1.3606,-13.8485 2.9479,-20.5587 4.7202,-19.9453 5.3706,-40.0549 3.8154,-60.3751 -0.3546,-4.6021 0.3492,-9.2794 0.4238,-13.9231 0.053,-2.7573 0.1226,-5.5668 -0.3265,-8.269 -1.2625,-7.6868 -3.1216,-15.2863 -4.1271,-23.0011 z m -24.0136,-171.796 c -1.2923,9.5518 -2.2669,19.1515 -3.3373,28.7337 0.6553,0.105 1.3105,0.2101 1.9658,0.3151 7.1061,-7.9293 11.0838,-16.8278 8.0198,-27.6328 -0.4626,-1.6244 -2.2695,-2.8698 -3.449,-4.2921 -1.1125,0.955 -3.0492,1.7979 -3.1993,2.8761 z m 17.3505,39.8179 c 2.0484,-1.928 2.6583,-2.2268 2.6634,-2.5383 0.224,-11.1951 0.4916,-22.3903 0.3989,-33.5836 -0.01,-1.1676 -2.191,-2.3216 -3.3634,-3.4776 -1.0551,1.1829 -3.0873,2.4436 -3.0042,3.5443 0.8655,11.5985 2.0695,23.1734 3.3053,36.0552 z m 6.1706,-37.7666 c 3.5672,1.3848 7.1961,2.6366 10.6884,4.1937 3.3401,1.492 7.1839,2.6383 9.6855,5.0895 7.3334,7.1977 13.9892,15.0891 21.1407,22.4931 10.1137,10.4667 20.3806,20.7878 30.7174,31.0329 1.5655,1.5566 3.7821,2.5817 5.8574,3.4884 13.0017,5.6774 26.0214,11.3068 39.0935,16.8242 3.3805,1.4271 6.8868,2.6909 10.459,3.4603 1.847,0.398 3.9631,-0.4508 6.8987,-0.8712 -9.1443,-6.3461 -16.6209,-12.6774 -25.08,-17.1462 -13.4884,-7.1223 -26.606,-14.2599 -36.6637,-26.2456 -4.82,-5.749 -11.4719,-9.9241 -16.6128,-15.4407 -6.0235,-6.4716 -11.2947,-13.6352 -16.9172,-20.4751 -6.7917,-8.276 -16.338,-11.0048 -26.2839,-11.9236 -4.188,-0.3823 -8.5945,1.6597 -12.9048,2.594 -0.021,0.9789 -0.05,1.9526 -0.078,2.9263 z m 121.6397,101.9592 c -2.7398,1.224 -5.5008,2.4729 -8.3672,3.334 -1.299,0.3906 -2.8717,-0.1313 -4.3245,-0.2496 -2.9623,-0.2433 -6.8345,-1.8051 -8.7232,-0.4978 -5.8355,4.0423 -12.2045,4.0992 -18.7461,4.9907 -13.2232,1.803 -14.9867,4.5921 -12.2107,17.1614 5.9356,-4.0374 7.8849,-14.0793 17.599,-11.7835 -0.2814,1.593 -0.5269,3.0036 -1.0697,6.071 4.7747,-2.5087 8.3011,-4.36 10.2434,-5.3803 4.1089,0.4377 7.1416,1.4323 9.866,0.8824 3.54,-0.7146 7.065,-2.2711 10.1684,-4.1675 3.7897,-2.313 6.2743,-1.716 9.7582,0.9967 3.4141,2.6604 7.9104,4.847 12.1513,5.3379 7.6853,0.8883 13.1844,3.3508 15.1543,11.4634 1.3946,5.7454 5.7468,7.924 11.3227,8.363 13.0312,1.0221 22.177,11.0667 21.7587,23.7702 -0.1751,5.4171 -1.7068,11.1701 5.839,13.6453 1.3436,0.4416 2.0933,4.4607 2.0967,6.8283 0,3.6527 -1.1061,7.2926 -1.3202,10.9624 -0.1647,2.9294 -0.8578,7.4205 0.6819,8.5805 6.3708,4.8164 2.5303,10.0728 1.388,14.9863 -1.0332,4.4603 -3.1184,8.6921 -4.8935,12.9628 -1.9314,4.6554 -1.8672,8.2718 3.945,8.8409 -10.4472,17.9748 -20.7635,35.7351 -31.7589,54.6561 8.7397,-0.4723 25.4708,-14.3243 27.4377,-19.9469 2.0588,-5.892 4.6901,-11.649 7.677,-17.1368 4.3595,-8.0115 9.6601,-15.5282 13.7405,-23.6669 1.7548,-3.5008 1.3618,-7.9806 -5.0891,-7.8013 1.2396,-2.7153 2.6042,-4.6884 3.0346,-6.8472 1.1841,-6.0109 4.8525,-14.0744 2.3267,-17.736 -4.888,-7.0917 -2.7341,-13.3186 -2.4383,-20.1061 0.097,-2.272 0.3482,-5.1204 -0.8069,-6.7631 -4.8904,-6.9354 -7.7454,-14.5874 -10.1896,-22.6276 -0.9672,-3.1943 -5.2241,-5.3163 -6.4655,-8.5154 -2.7708,-7.1519 -7.9182,-10.847 -14.6801,-13.6645 -2.8953,-1.2069 -5.9319,-4.2689 -7.0217,-7.1913 -3.155,-8.4457 -7.619,-14.2264 -17.5141,-14.7038 -3.705,-0.1773 -8.1989,-1.4798 -10.7731,-3.9174 -6.638,-6.2916 -13.0084,-4.1617 -19.7967,-1.1303 z m 32.5675,101.4116 c 4.2286,1.0994 8.5332,1.1672 11.782,-6.1377 -5.1467,0.3456 -9.0006,0.6041 -12.8546,0.8621 0.3376,1.8362 0.3108,5.0777 1.0726,5.2756 z m -10.0838,-63.856 c -2.9105,-6.4345 -6.4466,-7.3856 -13.4016,-2.871 4.187,0.8959 8.3679,1.7925 13.4016,2.871 z m 4.4009,13.1955 c -5.8467,-0.4194 -10.2681,-0.7378 -14.4003,-1.0342 3.5524,5.6657 7.3549,6.35 14.4003,1.0342 z m -96.8759,229.5762 c -7.9897,7.5755 -15.8335,15.6925 -27.4849,18.7056 -7.0304,1.818 -13.3823,0.5187 -17.6621,-4.9309 -8.8333,-11.2474 -20.7793,-10.1612 -32.2695,-8.2794 -14.2473,2.3344 -28.1105,6.9602 -42.3341,9.4597 -4.3775,0.7687 -9.6374,-1.6728 -14.0567,-3.6262 -2.7868,-1.2306 -5.0162,-4.0812 -7.0337,-6.5805 -1.8154,-2.2604 -4.8132,-5.7891 -4.1223,-7.4314 1.9456,-4.6425 5.0671,-8.9736 11.7498,-7.3171 7.4048,1.8372 14.9181,3.3045 22.4487,4.5444 3.5009,0.5751 7.1499,0.2316 11.0522,0.311 -9.6766,-2.7704 -18.7114,-5.4868 -27.817,-7.9163 -5.9192,-1.577 -11.6549,-4.997 -18.1358,-0.7305 -2.2493,1.4807 -5.8455,1.0255 -8.8411,1.2401 -9.152,0.6538 -19.8653,5.8857 -23.6656,-9.6607 -0.5552,0.4238 -1.1107,0.8465 -1.6659,1.2703 -0.7498,2.2728 -1.4989,4.5457 -2.4084,7.305 -11.5567,0.537 -21.6729,-4.1228 -31.0865,-10.6434 -1.0502,-0.7272 -1.187,-3.054 -1.3767,-4.682 -0.3626,-3.1137 -0.4581,-6.2587 -1.597,-9.9884 -4.927,9.2358 -11.413,6.2365 -17.2444,3.2591 -8.0142,-4.0919 -15.6887,-8.8584 -23.4357,-13.4591 -3.5347,-2.0999 -4.2733,-4.5966 -0.6522,-7.5703 4.4558,-3.6589 4.7639,-7.5361 0.1775,-11.4284 -8.5529,6.6765 -8.5603,6.6857 -17.1337,-0.083 -2.5383,-2.0039 -5.0944,-3.9935 -7.5137,-6.1351 -2.9295,-2.5918 -5.7233,-5.3387 -8.6155,-8.0558 2.1659,-6.6941 16.0425,-8.7648 7.1557,-19.8485 -3.1419,2.0971 -6.1139,4.0816 -10.5664,7.0526 -3.9619,-8.3898 -8.0131,-16.4921 -11.5066,-24.8277 -0.5922,-1.4137 0.7632,-4.2016 2.0035,-5.7093 2.5697,-3.1234 5.667,-5.8139 8.5473,-8.6822 -0.2629,-0.6336 -0.5253,-1.2679 -0.7877,-1.9022 -3.5487,0.7487 -7.0975,1.4975 -12.3621,2.6083 -2.6204,-8.953 -5.4672,-18.2415 -8.033,-27.6069 -1.5845,-5.7865 1.3766,-8.0473 6.9129,-8.1416 1.9408,-0.033 3.8704,-0.7252 5.9816,-2.7312 -3.092,-0.5977 -6.1853,-1.1958 -8.9647,-1.7325 -1.3061,-9.1195 -3.0732,-18.0952 -3.7506,-27.1518 -0.6573,-8.7816 3.1723,-15.9104 8.9856,-19.8171 1.5121,-6.4414 2.1228,-11.7425 4.0239,-16.5309 3.0186,-7.6013 3.989,-17.122 14.7619,-18.8998 0.9229,-0.1527 1.5882,-1.8696 2.3732,-2.8596 -1.0144,-0.7554 -1.9343,-1.745 -3.0684,-2.2035 -1.2227,-0.4955 -2.6471,-0.4941 -5.0603,-0.8826 8.1917,-11.5549 14.24,-24.0976 30.1796,-25.2181 1.0954,-0.076 2.4344,-0.4046 3.1861,-1.1152 15.6327,-14.8072 34.7655,-24.1669 53.521,-33.9698 20.1732,-10.5404 39.1978,-22.4826 54.9134,-39.172 9.4461,-10.036 18.6031,-20.3537 28.3765,-30.0573 21.8047,-21.6512 47.6184,-30.1093 77.9138,-22.2471 11.807,3.064 23.6392,6.1304 35.2541,9.8496 12.3833,3.9634 21.0546,12.6478 28.1839,23.3678 8.799,13.222 17.5546,26.5745 27.5567,38.8659 13.7563,16.8921 31.8877,28.4413 51.3649,37.8864 12.6777,6.1495 25.3556,12.3002 38.0336,18.4509 -0.3353,0.8704 -0.6768,1.741 -1.0121,2.6113 -2.5093,0.3594 -5.0247,0.7196 -7.5341,1.079 -0.1612,0.5235 -0.3163,1.046 -0.4775,1.5694 1.5623,0.9709 3.0099,2.2684 4.7024,2.8452 3.4954,1.1881 7.1416,1.9097 10.6747,2.97 10.4228,3.1204 14.0087,8.4121 14.2111,19.8508 0.023,1.4157 2.0046,3.2775 3.5328,4.096 4.7471,2.5497 7.7188,5.8099 8.6611,11.5207 1.154,7.0161 3.5225,13.8328 5.4736,21.1636 -1.5548,0.8616 -3.2419,1.797 -6.1503,3.4062 2.5765,1.6716 4.2194,3.5085 6.102,3.8076 5.4506,0.8653 7.1873,4.2253 7.3226,9.1192 0.036,1.3834 0.1721,2.7643 0.1838,4.1475 0.082,7.6004 0.1323,15.2022 0.2047,23.5194 -2.9722,0.4257 -5.6156,0.8042 -8.2588,1.1828 -0.09,0.4983 -0.1806,0.9961 -0.2708,1.4945 1.866,1.0516 3.7382,2.1024 5.6173,3.1578 0.3701,12.1754 -3.5213,25.5821 -12.2799,42.1111 -2.7383,-0.4147 -5.5591,-0.8417 -9.6507,-1.4615 1.348,2.1645 1.7794,3.8313 2.6677,4.1316 7.3861,2.4882 6.3652,7.9021 4.9404,13.4906 -2.1471,8.443 -5.2658,16.3091 -12.9182,21.1623 -4.7615,-1.739 -9.3459,-3.4132 -13.9303,-5.0875 -0.5517,0.7919 -1.1032,1.5845 -1.6609,2.3779 1.8663,2.1375 3.4977,4.5454 5.6342,6.3571 4.0382,3.4151 6.1468,6.247 1.1776,10.9993 -6.9755,6.6719 -13.2646,14.0567 -19.9814,21.2764 -3.6342,-3.2418 -6.7046,-5.9757 -9.7751,-8.7102 -0.6962,0.477 -1.3984,0.9555 -2.0945,1.4331 1.6141,4.0662 3.6306,8.0338 4.6623,12.2431 0.5045,2.0472 -0.047,5.7033 -1.453,6.6505 -8.3904,5.6457 -17.1619,10.7133 -24.7086,15.3059 -3.9214,-2.4697 -6.6316,-4.5541 -9.6568,-5.9302 -1.6085,-0.7292 -3.7803,-0.2262 -5.696,-0.2787 0.056,1.7342 -0.1939,3.55 0.2332,5.1864 0.815,3.0867 2.0192,6.0705 3.7432,11.0775 -9.7697,2.7418 -19.1005,5.5972 -28.5847,7.7716 -1.4623,0.3356 -3.7463,-2.3319 -5.4587,-3.8295 -2.3293,-2.0289 -4.4713,-4.2699 -6.6936,-6.4198 -0.5655,0.4346 -1.131,0.8693 -1.7026,1.3054 0.8404,3.9583 1.6869,7.9157 2.8902,13.5834 -14.3915,-1.7104 -27.8332,-3.0821 -41.2018,-4.9844 -7.6583,-1.0905 -13.8608,1.1261 -19.4221,6.606 7.9669,-1.6153 16.0002,-5.9786 23.5325,1.7401 z m 216.143,-55.8217 c -0.014,0.035 -0.02,0.074 -0.028,0.112 -0.02,-0.01 -0.046,-0.018 -0.066,-0.028 l 0.094,-0.084 z m -0.038,-0.093 c 0.011,0.031 0.028,0.062 0.038,0.093 0,0 -0.094,0.084 -0.068,0.049 0.012,-0.051 0.024,-0.094 0.029,-0.1422 z m 0,0 c -10.3191,-27.6555 -20.6384,-55.3116 -31.4602,-84.3059 -2.6809,2.5463 -3.6056,3.4239 -3.398,3.2245 3.0965,-16.4832 6.4339,-34.2365 9.8209,-52.2935 0.3411,-0.049 1.411,-0.5632 2.1087,-0.2491 17.8224,8.0902 37.2643,5.7453 55.9056,8.3556 15.083,2.1124 30.6422,3.3834 41.903,14.0041 8.845,8.3349 16.7461,18.8463 21.6797,29.9019 9.9639,22.3536 9.9939,45.8253 -0.547,68.3104 -6.4515,13.759 -19.5467,19.8411 -33.5444,21.0969 -19.3242,1.7351 -38.0058,-3.2407 -55.7187,-11.0863 -4.1211,-1.8245 -5.9394,-1.1104 -6.7496,3.0414 z m 43.7739,159.0878 c -3.9862,-1.4896 -6.9877,-2.6143 -11.2432,-4.2057 2.8821,8.1025 4.9322,8.8767 11.2432,4.2057 z m -15.6804,7.3871 c -1.2496,-0.089 -2.6954,2.6187 -4.0519,4.0405 3.465,3.1454 6.9361,6.29 11.0425,10.0079 0.774,-8.4402 -1.967,-13.6907 -6.9906,-14.0484 z m -20.7048,-144.2224 c 0.7438,1.8955 1.1954,5.1785 2.2846,5.406 2.4665,0.5138 5.2457,-0.4785 7.8951,-0.8579 l -8.1546,-6.292 c -0.6751,0.5809 -1.3501,1.1624 -2.0251,1.7439 z m 106.4619,-30.2309 c 8.0837,19.1204 11.6133,37.2552 -1.6338,55.47 -17.7384,24.3954 -26.5451,53.1305 -38.2517,80.4958 -8.1491,19.0485 -18.0176,37.4184 -27.9921,55.6126 -8.3038,15.1475 -11.7965,15.1933 -23.0522,2.5246 -5.6166,-6.3205 -11.2381,-12.6751 -16.3127,-19.4212 -1.4288,-1.9043 -1.1346,-5.2319 -1.3157,-7.9284 -0.3526,-5.1531 -3.9389,-8.0164 -8.5158,-5.7324 -5.0643,2.5265 -9.6144,6.0827 -15.226,9.7355 6.7537,5.3633 11.4029,-0.669 14.855,-0.9993 7.0501,12.1641 13.7535,23.7295 21.0664,36.3396 -16.9852,22.6236 -33.897,46.7148 -59.2636,64.1536 -24.9706,17.1658 -51.9806,28.034 -81.1626,33.8052 -19.2874,3.8146 -38.7277,2.4816 -57.0689,-5.7153 -2.3976,-1.0738 -4.0663,-3.7853 -6.0739,-5.7385 2.0562,-1.266 3.9636,-3.0073 6.2043,-3.7234 16.736,-5.3549 34.0551,-9.2854 50.2093,-16.0119 24.3779,-10.1507 45.0918,-24.8801 58.4202,-49.3407 10.2674,-18.8397 17.5931,-38.5162 24.1326,-58.6916 0.6335,-1.956 1.3559,-4.2032 0.9779,-6.1044 -0.8961,-4.4781 -1.0717,-10.6081 -4.0021,-12.8418 -5.2895,-4.0365 -11.8065,-1.1508 -16.4919,2.9362 -9.0391,7.8861 -17.6156,16.3126 -26.3576,24.5372 -1.3419,1.2631 -2.7269,2.5293 -3.8285,3.9942 -4.4843,5.9695 -9.5071,6.0511 -15.6703,2.381 -8.7245,-5.1936 -9.9577,-4.6906 -15.035,4.1247 -4.6095,8.002 -8.9745,16.1497 -13.7409,24.0548 -2.1953,3.6366 -5.0151,6.385 -10.2542,5.1743 -1.864,-0.4298 -5.0023,1.1366 -6.396,2.7757 -7.178,8.4257 -13.7317,17.3917 -21.0171,25.7184 -3.8621,4.4111 -8.7688,7.9077 -13.2001,11.816 -0.7051,-0.1495 -1.4102,-0.299 -2.1216,-0.4482 0.6562,-5.4008 0.092,-11.3372 2.1801,-16.1127 9.3532,-21.4038 19.8785,-42.2179 36.0326,-59.5779 16.1972,-17.406 32.3097,-34.8832 48.4711,-52.322 0.7866,-0.8442 1.9157,-1.4664 2.436,-2.4335 5.7992,-10.7623 13.3191,-21.0103 16.8788,-32.4806 8.6383,-27.7842 29.4091,-44.7631 50.7167,-61.6399 11.1253,-8.8132 23.6297,-15.0283 37.2338,-19.0756 0.2027,-0.061 0.2365,-0.6921 0.3297,-1.1263 9.994,3.9017 19.7648,8.5457 30.0247,11.5265 16.7712,4.8734 34.0356,6.5062 51.2357,2.2659 12.3375,-3.0399 23.5739,-8.3002 30.378,-20.0312 0.3987,-0.6886 1.2445,-1.1186 2.2014,-1.945 z m 51.7347,-67.3349 c -5.1301,-4.7468 -10.7972,-9.0766 -15.3404,-14.3692 -13.1488,-15.2972 -29.2297,-26.46 -47.0145,-35.5894 -9.3178,-4.7791 -8.7753,-5.0278 -6.3719,-14.6759 1.9401,-7.7632 2.8617,-15.7796 4.4415,-24.8866 2.0916,1.1077 4.4786,1.9337 6.3383,3.4183 21.1422,16.8617 41.97,34.045 59.4962,54.8661 12.6047,14.9699 12.747,16.2243 -1.5492,31.2367 z m 16.0754,-3.5877 c 21.4824,19.8879 32.5991,45.2997 41.2443,72.2905 -13.3038,-22.8895 -28.4641,-44.29 -47.9302,-62.9022 2.3701,-3.3279 4.4558,-6.2545 6.6859,-9.3883 z m 65.8293,-66.7423 c 0.5168,2.6098 -0.2297,5.4696 -0.4445,8.2234 -2.5409,-0.2521 -5.5857,0.3177 -7.5358,-0.8861 -16.8568,-10.3749 -33.4506,-21.1697 -50.2664,-31.6057 -4.8566,-3.0102 -10.1767,-5.2646 -15.9491,-8.2033 2.1661,-7.1392 4.0992,-13.5178 6.7066,-22.1324 14.1764,10.103 27.6655,19.1838 40.5309,29.0737 8.193,6.2995 15.4965,13.7663 23.1216,20.7874 1.5101,1.3873 3.4896,2.9703 3.8367,4.743" /><text
         transform="scale(1,-1)"
         sodipodi:linespacing="125%"
         id="text4278"
         y="-4876.3447"
         x="1975.1799"
         style="font-style:normal;font-weight:normal;font-size:407.36566162px;line-height:125%;font-family:sans-serif;letter-spacing:0px;word-spacing:0px;fill:#95423f;fill-opacity:1;stroke:none;stroke-width:1px;stroke-linecap:butt;stroke-linejoin:miter;stroke-opacity:1"
         xml:space="preserve"><tspan
           style="font-style:normal;font-variant:normal;font-weight:normal;font-stretch:normal;font-size:407.36999512px;line-height:125%;font-family:Kefa;-inkscape-font-specification:'Kefa, Normal';text-align:start;writing-mode:lr-tb;text-anchor:start;fill:#95423f;fill-opacity:1"
           y="-4876.3447"
           x="1975.1799"
           id="tspan4280"
           sodipodi:role="line"><tspan
   id="tspan4282"
   style="fill:#000000;fill-opacity:1">Idiomatic</tspan> Rust</tspan></text>
<text
         xml:space="preserve"
         style="font-style:normal;font-weight:normal;font-size:132.02728271px;line-height:125%;font-family:sans-serif;letter-spacing:0px;word-spacing:0px;fill:#95423f;fill-opacity:1;stroke:none;stroke-width:1px;stroke-linecap:butt;stroke-linejoin:miter;stroke-opacity:1"
         x="1974.9868"
         y="-4688.7627"
         id="text4294"
         sodipodi:linespacing="125%"
         transform="scale(1,-1)"><tspan
           sodipodi:role="line"
           id="tspan4296"
           x="1974.9868"
           y="-4688.7627"
           style="font-style:normal;font-variant:normal;font-weight:normal;font-stretch:normal;font-size:132.02870178px;line-height:125%;font-family:Kefa;-inkscape-font-specification:'Kefa, Normal';text-align:start;writing-mode:lr-tb;text-anchor:start;fill:#595959;fill-opacity:1">Guidelines for writing elegant Rust programs</tspan></text>
</g></g></svg>