<?xml version="1.0" encoding="UTF-8" standalone="no"?>
<!-- Created with Inkscape (http://www.inkscape.org/) -->

<svg
   id="svg4225"
   version="1.1"
   inkscape:version="1.3 (0e150ed, 2023-07-21)"
   xml:space="preserve"
   width="1304.2373"
   height="350.93176"
   viewBox="0 0 1304.2373 350.93178"
   sodipodi:docname="idiomatic-rust.svg"
   inkscape:export-filename="idiomatic-rust-dark.png"
   inkscape:export-xdpi="377.49"
   inkscape:export-ydpi="377.49"
   xmlns:inkscape="http://www.inkscape.org/namespaces/inkscape"
   xmlns:sodipodi="http://sodipodi.sourceforge.net/DTD/sodipodi-0.dtd"
   xmlns="http://www.w3.org/2000/svg"
   xmlns:svg="http://www.w3.org/2000/svg"
   xmlns:rdf="http://www.w3.org/1999/02/22-rdf-syntax-ns#"
   xmlns:cc="http://creativecommons.org/ns#"
   xmlns:dc="http://purl.org/dc/elements/1.1/"><metadata
     id="metadata4231"><rdf:RDF><cc:Work
         rdf:about=""><dc:format>image/svg+xml</dc:format><dc:type
           rdf:resource="http://purl.org/dc/dcmitype/StillImage" /></cc:Work></rdf:RDF></metadata><defs
     id="defs4229"><clipPath
   clipPathUnits="userSpaceOnUse"
   id="clipPath4241"><path
     d="m 0.06,0 3968.44,0 0,3968.5 -3968.44,0 L 0.06,0 Z"
     id="path4243"
     inkscape:connector-curvature="0" /></clipPath>&#10;&#10;</defs><sodipodi:namedview
     pagecolor="#151515"
     bordercolor="#666666"
     borderopacity="1"
     objecttolerance="10"
     gridtolerance="10"
     guidetolerance="10"
     inkscape:pageopacity="0"
     inkscape:pageshadow="2"
     inkscape:window-width="1920"
     inkscape:window-height="1027"
     id="namedview4227"
     showgrid="false"
     inkscape:zoom="0.58971601"
     inkscape:cx="562.98285"
     inkscape:cy="167.87742"
     inkscape:window-x="1728"
     inkscape:window-y="25"
     inkscape:window-maximized="0"
     inkscape:current-layer="g4233"
     fit-margin-top="0"
     fit-margin-left="0"
     fit-margin-right="0"
     fit-margin-bottom="0"
     inkscape:showpageshadow="2"
     inkscape:pagecheckerboard="0"
     inkscape:deskcolor="#d1d1d1" /><g
     id="g4233"
     inkscape:groupmode="layer"
     inkscape:label="crab"
     transform="matrix(1.25,0,0,-1.25,-999.45139,6042.0311)"><g
       id="g4235" /><path
       inkscape:connector-curvature="0"
       id="path4247"
       style="fill:#c8423e;fill-opacity:1;fill-rule:nonzero;stroke:none;stroke-width:0.184691"
       d="m 1126.7381,4690.7687 c 0.07,-1.226 0.2536,-2.4454 0.4213,-3.9035 3.2835,0.3474 6.3852,1.1643 9.0176,3.3056 0.4963,0.4035 0.9683,0.838 1.4723,1.2305 1.5527,1.2073 1.6009,1.3675 0.8468,3.1794 -0.9377,2.2539 -1.4505,2.553 -3.682,1.4797 -2.6112,-1.2557 -5.1291,-2.7095 -7.6488,-4.1443 -0.2787,-0.1587 -0.4491,-0.7633 -0.4272,-1.1474 z m -10.0714,-7.2489 c 0.3216,0.065 0.7487,0.1704 0.9803,0.024 1.7978,-1.1373 3.643,-0.3489 5.4092,-0.04 0.5981,0.1047 1.3844,1.1382 1.4636,1.8198 0.2108,1.8 0.1768,3.6468 0.046,5.4612 -0.07,0.9736 -0.8211,1.1039 -1.7321,0.7623 -3.7593,-1.4091 -7.6148,-2.432 -11.6423,-2.6999 -0.211,-0.014 -0.4194,-0.066 -0.6301,-0.087 -0.7438,-0.072 -2.0168,0.065 -2.1356,-0.2437 -0.3646,-0.9503 -0.5437,-2.137 -0.29,-3.0992 0.1563,-0.5919 1.1913,-1.0272 1.9097,-1.3737 0.641,-0.3094 1.3851,-0.4121 2.0894,-0.5843 0.4969,-0.1214 1.0025,-0.2063 1.5045,-0.3076 0.021,-0.099 0.044,-0.198 0.067,-0.2971 0.9861,0.2244 1.9697,0.4633 2.9606,0.6651 z m 7.5925,19.1647 c -0.4071,0.8845 -0.8979,1.73 -1.4428,2.7669 -2.4945,-0.9944 -4.8384,-2.0024 -7.2363,-2.8591 -1.6345,-0.584 -3.3597,-0.9114 -5.0094,-1.4569 -0.3916,-0.129 -0.8367,-0.6325 -0.9219,-1.0345 -0.1734,-0.8182 -0.1253,-1.6847 -0.1525,-2.5318 -0.026,-0.792 0.4061,-1.0921 1.1406,-0.9488 3.9623,0.774 7.9354,1.5038 11.8786,2.3694 2.0113,0.4412 2.5998,1.8338 1.7437,3.6948 z m -19.2424,-55.5983 c -0.1887,-0.6445 -0.3389,-1.3003 -0.5034,-1.9517 0.5047,0.31 1.0533,0.5655 1.5052,0.9393 3.357,2.7759 5.1908,6.5874 6.8859,10.4474 0.5526,1.2616 0.6544,2.7256 0.9231,4.1049 0.169,0.8677 -0.3376,1.0815 -1.0453,0.8534 -0.846,-0.2726 -1.6629,-0.6378 -2.2174,-0.8545 -0.5821,-2.0369 -1.0314,-3.8357 -1.6165,-5.5886 -0.5377,-1.6139 -1.1554,-3.2096 -1.8678,-4.7537 -0.4577,-0.9917 -1.1472,-1.8779 -1.7405,-2.8066 -0.091,-0.1418 -0.2802,-0.2411 -0.3233,-0.3899 z m -2.3417,25.394 c -0.1365,-1.5302 0.4178,-2.4854 1.856,-3.1196 1.4404,-0.6356 2.6488,-1.5916 3.3007,-3.2037 0.5036,-1.2453 1.3449,-2.3599 2.0978,-3.4917 0.1672,-0.2513 0.629,-0.5057 0.899,-0.4559 2.1301,0.3974 3.5384,2.8085 2.584,4.6568 -1.0224,1.9831 -2.309,3.8285 -3.4676,5.7416 -0.3203,0.5291 -0.6513,1.0634 -0.8772,1.6341 -0.6329,1.6002 -1.6589,2.8208 -3.1776,3.6625 -0.9744,-2.0266 -0.156,-4.8405 -3.2151,-5.4241 z m -8.4516,16.0039 c -1.1113,-0.8823 -2.0243,-2.0145 -3.2542,-3.2765 1.82,-0.2607 3.4925,-0.4942 5.1618,-0.7411 1.5558,-0.2301 3.1031,-0.5114 4.6624,-0.7012 1.4126,-0.172 2.8356,-0.3116 4.2562,-0.3239 0.3164,0 0.8653,0.5512 0.9199,0.9089 0.2671,1.7128 0.4051,3.4457 0.579,5.1726 0.1341,1.3293 -0.1385,1.6622 -1.4682,1.5233 -1.31,-0.1372 -2.6004,-0.4588 -3.91,-0.6178 -1.3004,-0.1582 -2.6568,-0.043 -3.9063,-0.3677 -1.0827,-0.2815 -2.1573,-0.8752 -3.0406,-1.5766 z m 4.9261,-7.1961 c -3.0397,-0.3923 -6.0626,-0.9153 -9.0942,-1.3711 -2.5916,-0.3897 -5.1335,-1.3698 -7.8297,-0.614 -0.3266,0.092 -0.8718,-0.1243 -1.1405,-0.3808 -1.2256,-1.1756 -2.4144,-2.391 -3.5389,-3.6615 -0.145,-0.1629 0.05,-0.8945 0.2968,-1.0699 0.3448,-0.2457 0.8849,-0.2174 1.3429,-0.306 3.2348,-0.8903 6.4288,-0.5189 9.6164,0.2644 2.1441,0.5274 4.3101,0.9267 6.494,0.2971 0.8941,-0.2578 1.7249,-0.7246 2.5963,-1.0687 0.4705,-0.1856 0.954,-0.3926 1.4481,-0.453 2.4621,-0.2987 3.7592,0.815 3.7401,3.2871 -0.01,1.1402 -0.1764,2.287 -0.3673,3.4147 -0.1604,0.9558 -1.9851,1.8656 -3.564,1.6617 z m 1.5713,19.0749 c -0.287,-1.3462 -0.8264,-2.9884 -0.8814,-4.6469 -0.019,-0.5482 1.1386,-1.484 1.8845,-1.6384 1.6066,-0.3327 3.2963,-0.3653 4.9504,-0.3497 1.653,0.016 2.1935,0.8481 2.0329,2.4762 -0.098,1.0047 0.022,2.0308 0.042,3.0472 0.011,0.5385 0.015,1.077 0.023,1.601 -2.6774,-0.1626 -5.2297,-0.3178 -8.0506,-0.4894 z m -6.6181,-50.2178 c 1.5584,-0.1475 3.1306,-0.1912 4.6973,-0.1768 0.7137,0.01 1.1421,1.6582 0.6287,2.2575 -0.1799,0.2106 -0.3782,0.4054 -0.4066,0.4313 v 0 c 0,0.01 0,0.01 0,0 0.3917,0.6671 0.7618,1.0067 0.7691,1.3546 0.094,4.3442 -0.7662,8.5403 -2.063,12.6635 -0.1027,0.3247 -0.1826,0.6564 -0.2913,0.9796 -0.092,0.2726 -0.2102,0.5364 -0.2551,0.6473 -1.2846,-1.0742 -2.5574,-2.1386 -3.9293,-3.2852 0.9996,-2.6549 1.39,-5.6358 1.073,-8.6508 -0.1623,-1.5506 -0.6852,-3.0771 -1.1661,-4.5752 -0.3217,-1.0043 0.023,-1.5587 0.9433,-1.6458 z m -15.2203,-13.0707 c 0.118,-0.1053 0.2361,-0.2106 0.3531,-0.3158 6.8177,2.3171 13.1298,5.4791 18.1735,11.0395 -1.632,0.3072 -3.1944,0.6354 -4.7713,0.8705 -0.3001,0.045 -0.7302,-0.2008 -0.9725,-0.4416 -1.0269,-1.0227 -2.0371,-2.065 -2.9952,-3.1515 -2.4589,-2.7898 -5.5386,-4.7514 -8.6717,-6.6617 -0.4703,-0.2862 -0.7489,-0.8846 -1.1159,-1.3394 z m -3.9206,34.7291 c -0.718,-0.8775 -1.3735,-1.8076 -2.1679,-2.874 3.3515,-1.1653 6.5686,-1.5468 9.8455,-1.6706 2.4261,-0.093 4.8478,-0.3281 7.2694,-0.5165 0.9343,-0.073 1.8622,-0.2231 2.7959,-0.2845 1.0802,-0.072 1.9585,0.3693 2.3871,1.3663 0.4177,0.9688 0.7441,1.9896 0.9822,3.0185 0.2224,0.96 -0.4041,1.6512 -1.2442,1.7406 -1.7518,0.1843 -3.5597,0.3938 -5.2854,0.1589 -4.5774,-0.621 -9.1338,-1.1991 -13.7585,-0.6033 -0.2627,0.033 -0.6567,-0.1287 -0.8241,-0.3354 z m -54.68,-24.9934 c -1.3559,-0.3408 -2.696,-0.7424 -4.2018,-1.1707 1.5769,-2.2841 3.7024,-3.2566 5.7144,-4.2978 3.1658,-1.6381 6.4224,-3.1021 9.6551,-4.6086 0.4101,-0.1907 0.9305,-0.3238 1.3561,-0.2458 0.3385,0.063 0.6525,0.4598 0.874,0.7805 0.045,0.067 -0.3131,0.5465 -0.5668,0.6667 -2.3357,1.1174 -4.684,2.2102 -7.0407,3.2847 -1.3332,0.6088 -2.4683,1.3407 -3.1295,2.7797 -0.4334,0.9425 -1.2299,1.7259 -1.9105,2.542 -0.1509,0.1811 -0.5303,0.325 -0.7503,0.2693 z m 17.7902,21.9207 c 0.5314,0.1994 1.075,0.3638 1.7153,0.5786 -0.9003,0.9359 -1.7597,1.8683 -2.6729,2.7464 -0.2008,0.1929 -0.5975,0.2922 -0.8882,0.2661 -5.3514,-0.494 -10.6946,-0.7849 -16.0659,-0.127 -1.2101,0.1492 -2.524,-0.2079 -3.7382,-0.5299 -1.1093,-0.2935 -1.5357,-1.1542 -1.0891,-2.2881 0.3894,-0.9867 0.59,-2.2162 1.3049,-2.8593 0.6607,-0.5951 1.903,-0.7902 2.8714,-0.7487 2.368,0.1028 4.7204,0.5362 7.0884,0.6666 3.9435,0.217 7.7725,0.9107 11.4743,2.2953 z m -24.7512,-5.0832 c -0.552,-2.8896 -1.3197,-5.7781 -1.4568,-8.6926 -0.099,-2.1004 0.6627,-4.2459 1.0895,-6.3607 0.037,-0.1868 0.446,-0.4393 0.6676,-0.4251 1.5666,0.097 3.1432,0.1698 4.689,0.4213 1.1675,0.1898 1.5064,1.1894 0.9302,2.266 -0.715,1.3376 -1.4412,2.6688 -2.1303,4.0187 -0.127,0.249 -0.2401,0.6601 -0.124,0.8547 1.2988,2.1845 0.9897,4.6475 1.3379,7.0026 0.2167,1.4647 -0.3328,1.9624 -1.5969,2.4477 -0.9254,0.3552 -1.6365,1.2686 -2.5126,1.9899 -0.2962,-1.1503 -0.6647,-2.3236 -0.8936,-3.5225 z m -3.8974,8.5054 c 1.7582,-0.1829 3.3547,-0.3346 4.8291,0.7743 1.5517,1.1691 3.3416,1.2388 5.2333,1.0241 2.0987,-0.2374 4.2255,-0.2171 6.3376,-0.3474 2.8325,-0.175 5.5121,0.719 8.3228,1.2038 -2.408,2.0622 -4.5566,4.233 -8.144,4.1039 -2.7393,-0.099 -5.5035,0.5793 -8.2607,0.8743 -2.0349,0.2168 -4.0745,0.4699 -6.1158,0.5097 -0.926,0.018 -1.8931,-0.3614 -2.783,-0.7092 -0.8347,-0.327 -1.2057,-1.0292 -0.9159,-2.0958 0.3149,0.3957 0.583,0.7338 1.1016,1.3873 0.1463,-2.4936 0.2692,-4.5844 0.395,-6.725 z m -7.0275,43.8177 c -0.4079,0.1943 -0.739,0.5504 -1.4104,1.0964 0.8008,0.1711 1.2496,0.3981 1.606,0.2975 0.2383,-0.067 0.4365,-0.591 0.4687,-0.928 0.014,-0.1444 -0.533,-0.5283 -0.6643,-0.4659 z m 4.4529,-5.5133 c 0.3592,0.9076 0.6779,1.8435 0.8798,2.7955 0.09,0.4236 0,1.1789 -0.2658,1.3379 -2.4245,1.4322 -3.4951,3.8256 -4.4144,6.2516 -0.7975,2.1046 -1.3138,4.3189 -1.9,6.4992 -0.2788,1.0373 -0.2398,1.9778 -1.89304,2.0455 -1.78197,0.073 -3.51887,0.923 -5.30461,1.2926 -3.96091,0.8198 -7.79948,0.6969 -10.76157,-2.5175 -0.89912,-0.9758 -1.63167,-2.3716 -1.84054,-3.6714 -0.97028,-6.0358 0.36565,-11.4875 4.94585,-15.7767 0.97447,-0.9123 2.42737,-1.4145 3.74561,-1.8398 3.83437,-1.2369 7.8452,-0.9323 11.795,-1.183 1.764,-0.1119 3.5116,-0.4791 5.376,-0.7461 0.3816,1.0857 0.7745,2.2033 1.2048,3.4277 -0.2123,0.087 -0.4639,0.1919 -0.716,0.2949 -0.828,0.3374 -1.2284,0.8364 -0.8511,1.7896 z m 2.3362,-11.4558 c -2.6052,1.6303 -5.7171,0.2743 -8.7762,1.1976 0.035,-0.7487 0.054,-1.198 0.079,-1.6467 0.071,-1.272 0.1967,-2.5436 0.2035,-3.8158 0.01,-1.5557 0.7779,-2.4642 2.2661,-2.1717 2.1316,0.4188 4.2281,1.0358 6.3095,1.668 0.2637,0.08 0.5116,0.7762 0.4789,1.1624 -0.096,1.1303 -0.3374,2.2481 -0.5605,3.6062 z m 3.0658,-9.5968 c -2.3742,0.2402 -4.751,0.4681 -7.1318,0.6254 -1.8094,0.1191 -2.0396,-0.1866 -1.7009,-1.9675 0.3405,-1.789 0.6967,-3.5746 1.0542,-5.4051 4.8882,-2.0283 9.0237,1.1114 13.5848,1.9161 -0.051,1.2746 -0.9155,1.9093 -1.6795,1.9797 -1.6616,0.1507 -2.3087,1.4557 -3.3267,2.358 -0.2341,0.2069 -0.5181,0.4657 -0.8001,0.4934 z m -10.5617,-17.0005 c -0.3258,-1.7097 -1.3149,-2.9731 -2.23403,-4.3533 -0.90207,-1.354 -1.64627,-2.8591 -2.16846,-4.3972 -0.18336,-0.5397 0.44165,-1.4041 0.80653,-2.0602 0.16895,-0.3031 0.59557,-0.4664 0.91152,-0.685 1.72774,-1.191 2.53884,-0.9995 3.63484,0.8524 0.065,0.1101 0.1503,0.2161 0.182,0.3367 0.7385,2.7997 2.1834,5.0448 4.8522,6.3994 0.3739,0.1898 0.6413,0.6853 0.8458,1.0946 0.5526,1.1078 0.3468,1.5437 -0.8734,1.7414 -1.006,0.1624 -1.5971,0.6144 -1.8272,1.6518 -0.2553,1.1536 -0.6569,2.2729 -1.0313,3.5307 -1.6468,-0.9316 -2.7518,-2.2921 -3.0985,-4.1113 z m -5.80251,-10.7518 c -0.26536,0.1758 -0.5836,0.2719 -1.0568,0.4866 2.47298,-7.3659 7.18841,-13.1278 11.40581,-19.2236 1.0811,0.4697 1.5281,0.9785 0.8913,2.2291 -1.4824,2.91 -2.7941,5.9069 -4.1668,8.8723 -0.1421,0.3074 -0.3,0.6342 -0.3292,0.9633 -0.1691,1.8976 -1.1608,3.1451 -2.81855,4.0553 -1.37351,0.7534 -2.61434,1.7473 -3.92576,2.617 z m -11.14008,25.994 c -0.0109,-1.4426 0.15149,-2.8858 0.24681,-4.3275 0.0681,-1.0303 0.62014,-1.6271 1.64023,-1.8145 1.04805,-0.1926 2.09176,-0.4098 3.58479,-0.704 2.74923,-1.0331 5.58802,0.4074 8.48583,1.3607 0.80143,0.2641 1.52613,0.7813 2.33533,0.9972 1.0106,0.2697 1.0777,0.8777 0.9735,1.734 -0.304,2.4887 -0.2867,2.4357 -2.81942,2.4736 -4.15862,0.063 -8.23069,0.7333 -12.22061,1.9189 -2.01024,0.5967 -2.21085,0.4705 -2.22646,-1.6384 z m 0.2093,10.4099 c 3.19578,-1.0453 6.41028,-1.987 9.83102,-1.9472 1.43734,0.017 2.8766,-0.1318 4.65158,-0.2223 -0.19308,1.3434 -0.34903,2.5702 -0.56935,3.7852 -0.0288,0.1591 -0.37226,0.3103 -0.59624,0.3775 -3.87122,1.1608 -7.74628,2.3092 -11.62203,3.4551 -0.28182,0.083 -0.5754,0.1272 -1.11782,0.2441 -0.50514,-1.411 -0.95567,-2.7293 -1.4502,-4.031 -0.3475,-0.9146 0.10355,-1.4098 0.87304,-1.6614 z m -15.1078,-7.9479 c 0.0422,-0.417 0.36075,-0.8724 0.67553,-1.185 2.82534,-2.8061 6.41978,-3.9477 10.21835,-4.5881 0.5118,-0.087 1.07459,0.1273 1.60886,0.2012 0.0674,1.4919 0.18262,2.7668 0.14839,4.0379 -0.0106,0.3964 -0.32988,0.9702 -0.67001,1.1417 -2.47158,1.2494 -4.98469,2.4163 -7.48442,3.6102 -0.0385,0.018 -0.0735,0.045 -0.11261,0.061 -2.65505,1.1241 -4.6788,-0.3678 -4.38409,-3.2788 z m -16.36891,10.7564 c 4.14941,-4.5774 9.92962,-6.3133 14.30872,-10.5325 0.71777,1.626 1.33833,3.0318 1.89563,4.2941 -1.73072,0.7449 -3.23274,1.3113 -4.66124,2.0247 -2.24745,1.1231 -4.42571,2.3845 -6.67331,3.5073 -0.98207,0.4906 -2.04194,0.8715 -3.10865,1.1246 -0.46239,0.1099 -1.03126,-0.2288 -1.76115,-0.4182 z m 13.56295,13.1383 c 0.18958,0.2778 0.37136,0.5611 0.62489,0.9455 -3.78762,3.3259 -7.02207,7.1085 -9.42449,11.582 -0.17107,-0.126 -0.34225,-0.2519 -0.51332,-0.3779 2.19036,-4.7503 4.49617,-9.4256 8.75108,-12.9449 0.18865,0.2664 0.37937,0.528 0.56184,0.7953 z m 11.01787,-6.8695 c -2.32105,1.623 -4.44979,3.5213 -6.65776,5.3055 -0.61486,0.4968 -1.22076,1.0049 -1.74171,1.4345 -0.24078,-0.078 -0.29486,-0.079 -0.32013,-0.1064 -2.39084,-2.5994 -2.50687,-3.2637 0.43439,-5.7093 3.34307,-2.7798 6.67739,-5.5701 10.02891,-8.3397 0.38995,-0.3223 0.84413,-0.5873 1.30524,-0.799 0.89478,-0.4108 1.55323,-0.015 1.75287,0.9711 0.24389,1.2044 0.55466,2.3973 0.73935,3.6099 0.0451,0.2966 -0.20141,0.8099 -0.46217,0.953 -1.6797,0.9216 -3.5232,1.5925 -5.07899,2.6804 z m 15.55865,54.0315 c -0.6021,-0.09 -1.20415,-0.1792 -1.80614,-0.269 -0.0474,0.1661 -0.0948,0.3321 -0.14215,0.4983 0.52212,0.8563 1.21676,0.4364 1.88623,0.203 0.0207,-0.1439 0.0414,-0.2881 0.0621,-0.4323 z m -2.55851,-3.8247 c 0.10159,0.1195 0.20319,0.2389 0.30481,0.3585 0.39299,-0.1904 0.97063,-0.2843 1.13319,-0.5952 0.21328,-0.408 0.0993,-0.987 0.12605,-1.4924 -0.16816,-0.036 -0.33634,-0.072 -0.50452,-0.1082 -0.35311,0.6124 -0.70631,1.2249 -1.05953,1.8373 z m -0.85172,-4.546 c -0.5513,0.053 -0.94161,0.091 -1.33203,0.1287 0.22884,0.7859 0.45767,1.5717 0.68637,2.3574 0.1557,-0.017 0.3115,-0.035 0.4672,-0.052 0.055,-0.75 0.11004,-1.5001 0.17846,-2.4339 z m -1.79579,-2.8482 c 0.67717,0.075 1.36327,0.068 2.04691,0.084 -9.2e-4,-0.2758 -0.002,-0.5517 -0.003,-0.8276 -0.72287,-0.01 -1.44574,-0.019 -2.16861,-0.029 0.0402,0.2692 0.0555,0.7647 0.12428,0.7723 z m 42.71455,19.3741 c 1.6222,2.5326 2.9586,5.3 3.2155,8.4123 0.026,0.3192 -0.036,0.6457 -0.083,1.3651 -1.6139,-1.9281 -3.0191,-3.571 -4.3801,-5.2497 -0.5625,-0.6937 -1.0382,-1.459 -1.5391,-2.2011 -0.4781,-0.7085 -0.9984,-1.1981 -1.9909,-1.0775 -0.3747,0.046 -0.9814,-0.3495 -1.1955,-0.7127 -0.8213,-1.3933 -1.5285,-2.8541 -2.2728,-4.2924 -0.2151,-0.4157 -0.413,-0.8405 -0.6173,-1.2619 -0.4918,-1.014 -1.1929,-1.1922 -2.1947,-0.6663 -1.8747,0.9843 -2.163,0.9039 -3.5997,-0.6761 -1.4319,-1.5745 -2.834,-3.178 -4.3183,-4.7017 -0.5829,-0.5983 -1.2907,-1.2102 -2.0568,-1.4547 -0.6768,-0.2159 -1.7803,-0.2038 -2.2066,0.2106 -0.4438,0.4315 -0.3838,1.4649 -0.3865,2.2356 0,0.4827 0.4014,0.9598 0.4291,1.4503 0.27,4.7788 2.2829,8.9831 4.3562,13.1506 1.0137,2.0379 2.4759,3.7273 4.3379,5.1337 1.2325,0.9311 2.1891,2.2437 3.2066,3.4389 1.1132,1.3078 2.6673,1.6183 4.1988,1.9237 1.4592,0.291 2.96,0.3677 4.4287,0.6182 1.1939,0.2037 2.3677,0.5255 3.618,0.8102 -0.31,1.301 -1.2036,1.6425 -2.0969,1.839 -4.45,0.9791 -8.8637,0.7701 -13.0744,-0.9835 -3.0576,-1.2734 -6.134,-2.6253 -8.9307,-4.3758 -5.578,-3.4913 -9.50592,-8.6011 -12.89781,-14.152 -0.40976,-0.6705 -0.33788,-1.064 0.19865,-1.6396 1.50837,-1.6178 2.84297,-3.3708 3.51019,-5.704 1.69517,0.7493 3.53407,1.8082 5.07137,-0.3962 -0.1238,-0.086 -0.2308,-0.1782 -0.2437,-0.1666 -1.4023,1.2698 -2.5233,0.4243 -3.63987,-0.4742 -0.23263,-0.1873 -0.45319,-0.4047 -0.7152,-0.5373 -0.97339,-0.4924 -1.71594,-0.07 -1.78297,1.0086 -0.0508,0.8185 -0.2907,1.372 -1.02498,1.9744 -1.26482,1.0379 -2.21421,2.4548 -3.32542,3.6859 -1.24041,1.3744 -1.66435,1.4795 -2.62071,-0.045 -1.37269,-2.1881 -2.64158,-4.4897 -3.58555,-6.888 -1.99796,-5.0767 -3.66509,-10.2832 -5.65493,-15.3633 -0.91288,-2.3303 -2.25012,-4.4968 -3.42578,-6.7215 -1.44317,-2.7306 -1.09685,-6.6551 0.88177,-9.2295 0.13064,0.082 0.32133,0.134 0.39312,0.256 1.82773,3.1066 4.84471,4.2035 8.14404,4.5361 3.63174,0.3661 7.23226,-0.044 10.68069,-1.3623 0.59273,-0.2266 1.16304,-0.5119 1.51506,-0.6685 0.66483,0.3624 1.15303,0.8416 1.67033,0.8754 2.9321,0.1918 5.0825,1.8265 7.1456,3.6683 4.4728,3.9931 7.2769,9.0197 8.8806,14.7173 0.5539,1.9676 1.557,3.455 3.1404,4.6562 0.5391,0.4089 1.0824,0.8696 1.4658,1.4173 3.1605,4.5146 6.401,8.9801 9.3717,13.6178 z m 40.373,-34.3435 c 2.4998,-0.036 4.6778,-0.7625 6.7637,-1.9558 0.608,-0.3479 1.0095,-1.1597 1.6326,-1.3613 2.8285,-0.9145 4.1185,-3.7296 6.5627,-5.1233 -2.2728,0.2417 -4.0088,1.4019 -5.7421,2.7411 -1.7468,1.3496 -3.6508,2.6433 -5.6922,3.4182 -1.5667,0.5948 -3.5041,0.6614 -5.1887,0.4009 -2.7588,-0.4263 -5.1123,0.742 -7.5981,1.3799 -0.7408,0.1901 -1.3083,0.4115 -2.0281,-0.01 -0.3218,-0.1867 -0.8083,-0.089 -1.4641,-0.1396 0.6942,1.1682 1.3726,1.7132 2.3256,1.3854 3.4145,-1.1748 6.9518,-0.69 10.4287,-0.7399 z m -11.1629,5.4486 c -1.6889,-0.5148 -3.3538,-1.1428 -5.0747,-1.5042 -1.1161,-0.2346 -2.3143,-0.081 -3.4755,-0.1005 0.015,0.03 0.03,0.06 0.046,0.09 2.8326,0.5979 5.6664,1.1956 8.5002,1.7933 0,-0.093 0,-0.1856 0,-0.2784 z m -8.2745,-6.2846 c -0.7154,0.1025 -1.1307,0.1608 -1.5445,0.2213 -0.4812,0.07 -1.001,0.2964 -1.4359,0.1856 -1.5205,-0.3891 -2.992,-0.9891 -4.5229,-1.3227 -1.0973,-0.2393 -2.2596,-0.1872 -3.393,-0.2542 -1.8686,-0.1102 -3.7394,-0.1964 -5.6059,-0.333 -0.2641,-0.019 -0.5154,-0.2584 -0.7665,-0.4061 -1.0912,-0.6422 -2.1895,-1.273 -3.2661,-1.9392 -0.5659,-0.3502 -1.1431,-0.7098 -1.6269,-1.16 -1.6053,-1.4941 -3.4244,-2.5284 -5.661,-2.8022 0.9203,0.9376 2.1777,1.5515 2.9107,2.5502 1.4514,1.9777 3.7633,2.6478 5.5738,4.0643 2.9076,2.2751 6.5922,2.148 10.016,1.8799 2.3204,-0.1817 4.4395,0.339 6.6268,0.6626 1.1247,0.1667 1.9015,0.028 2.6954,-1.3467 z m -27.3018,-16.4552 c -0.096,-1.4886 -1.2155,-2.0171 -2.6662,-1.3441 0.2115,1.4239 0.3624,1.5029 2.6662,1.3441 z m -2.4493,-22.6925 c 1.081,-0.013 1.918,-0.5 2.1767,-1.6055 0.3423,-1.4625 1.3303,-1.9083 2.6928,-2.0558 0.7222,-0.078 1.6089,-0.2808 2.0711,-0.7629 0.8741,-0.9115 1.51,-0.7764 2.5224,-0.239 0.9018,0.4787 2.0008,1.3821 2.9788,0.2354 0.6981,0.3616 1.3453,0.6968 2.1439,1.111 -0.713,-2.5818 -3.0377,-3.8167 -4.5815,-2.619 -0.8554,-0.3515 -1.7246,-0.7014 -2.5877,-1.0653 -1.0017,-0.422 -1.89,-0.5272 -2.8353,0.2997 -0.5347,0.4678 -1.3713,0.7671 -2.0922,0.8117 -1.977,0.1223 -2.9146,1.2428 -3.4581,2.9916 -0.1343,0.4321 -0.6426,0.7979 -1.0558,1.0825 -0.7276,0.5012 -1.9724,0.7608 -2.189,1.3977 -0.6051,1.7794 -2.8597,2.7542 -2.3978,5.004 0.025,0.12 -0.1201,0.3483 -0.245,0.4142 -1.6642,0.8767 -1.4105,2.3732 -1.2028,3.8129 0.1213,0.8409 0.2963,1.5716 -0.4572,2.2917 -0.3077,0.2941 -0.3453,1.058 -0.2441,1.5549 0.2341,1.1504 0.6279,2.2682 0.9768,3.468 -0.9416,-0.1421 -1.0706,0.5376 -0.818,1.2533 0.3301,0.9361 0.7605,1.855 1.2767,2.7029 0.7954,1.3064 2.0984,2.4416 2.4657,3.8388 0.5542,2.1084 2.0227,3.2259 3.4977,4.4501 0.3545,0.2943 0.8475,0.4216 1.2769,0.6257 0.077,-0.078 0.1545,-0.1568 0.2317,-0.2351 -0.8273,-1.7246 -1.5527,-3.5086 -2.5106,-5.1572 -0.9657,-1.6619 -2.1624,-3.1893 -3.3677,-4.9347 1.4137,-0.062 1.3838,-0.7338 1.0339,-1.5654 -0.2312,-0.5497 -0.5409,-1.0867 -0.6551,-1.6612 -0.2399,-1.2062 -1.4288,-2.4152 0.048,-3.6784 0.2759,-0.2361 0.092,-1.0543 0.055,-1.5993 -0.044,-0.6359 -0.2578,-1.2739 -0.2134,-1.8978 0.035,-0.4919 0.231,-1.2518 0.5629,-1.3883 0.8231,-0.3385 0.9495,-0.8777 0.9075,-1.606 -0.064,-1.1099 0.2942,-2.0583 0.6956,-3.113 0.6553,-1.7213 1.7196,-2.1437 3.2976,-2.1622 z m 5.7654,-10.0189 c 0.036,0.1269 0.071,0.2527 0.1073,0.3796 0.7415,-0.1062 1.5247,-0.097 2.2157,-0.3437 1.2781,-0.4576 2.4599,-1.2134 3.7571,-1.5817 3.0751,-0.8755 5.7755,-2.2196 7.535,-5.035 0.2213,-0.3543 0.5273,-0.7827 0.8857,-0.9017 1.6068,-0.5309 2.3208,-1.9177 3.2212,-3.1418 0.1996,-0.2731 0.4462,-0.5151 0.6848,-0.757 1.7779,-1.8136 3.5094,-3.6939 6.1551,-4.2576 0.068,-0.016 0.1161,-0.1188 0.1738,-0.1811 0.018,-0.169 0.037,-0.3381 0.055,-0.5072 -0.9514,-0.1185 -1.9204,-0.416 -2.8509,-0.3241 -3.2644,0.3229 -5.1414,2.6707 -6.9897,5.0269 -0.5407,0.6893 -1.1191,1.3553 -1.7252,1.9886 -0.4942,0.5173 -1.1292,0.909 -1.5699,1.4623 -1.682,2.1063 -3.8943,3.4919 -6.1916,4.8047 -1.857,1.0603 -3.6447,2.2416 -5.4632,3.3688 z m 24.3841,-12.0468 c -0.8537,-0.1578 -1.5518,-0.2874 -2.5354,-0.4703 0.7548,1.3992 1.4973,1.5098 2.5354,0.4703 z m 1.5198,52.5889 c 0.055,-1.4318 0.1157,-2.8632 0.1643,-4.2952 0.1103,-3.3099 0.096,-6.6302 0.375,-9.9261 0.1254,-1.4969 0.9146,-2.9358 -0.049,-4.4241 -0.1373,-0.2129 -0.059,-0.5852 -0.035,-0.8802 0.1153,-1.4718 0.3703,-2.945 0.3426,-4.4132 -0.044,-2.4367 -0.2659,-4.8702 -0.4137,-7.3049 -0.1409,0 -0.2819,0 -0.4217,0 -2.2092,10.3681 -2.8494,20.7672 0.038,31.2388 z m 3.9879,-24.3596 c -0.2884,-2.2223 -0.5826,-4.4525 -0.6811,-6.6878 -0.063,-1.4331 0.2337,-2.8805 0.3451,-4.3235 0.027,-0.3453 -0.042,-0.6979 -0.066,-1.0471 -0.1284,-0.023 -0.2579,-0.045 -0.3874,-0.068 -0.099,0.2499 -0.2632,0.4941 -0.2873,0.7512 -0.1185,1.3123 -0.2022,2.628 -0.2974,3.9427 -0.2979,4.0999 -1.0083,8.1894 -0.2556,12.3148 0.081,0.4423 0.1041,1.0151 -0.1092,1.3693 -0.7279,1.2098 -0.4279,2.3745 -0.081,3.5824 0.176,0.6111 0.3554,1.2467 0.3684,1.8747 0.061,2.9736 0.043,5.949 0.1001,8.923 0.026,1.3249 0.1657,2.6477 0.2542,3.9712 0.148,0 0.2971,0 0.4462,0 0.048,-0.4354 0.088,-0.8721 0.1459,-1.3059 0.1708,-1.2678 0.2513,-2.5577 0.5444,-3.7971 0.8718,-3.6837 0.9919,-7.3977 0.7047,-11.1507 -0.065,-0.85 0.065,-1.7138 0.078,-2.5715 0.01,-0.5092 0.023,-1.0281 -0.06,-1.5272 -0.2332,-1.4197 -0.5766,-2.8232 -0.7623,-4.2481 z m -4.4351,-31.7292 c -0.2387,1.7641 -0.4187,3.5371 -0.6164,5.3069 0.1211,0.019 0.2421,0.039 0.3631,0.058 1.3124,-1.4645 2.0471,-3.108 1.4812,-5.1036 -0.085,-0.3 -0.4192,-0.53 -0.637,-0.7927 -0.2055,0.1764 -0.5632,0.3321 -0.5909,0.5312 z m 3.2045,7.354 c 0.3783,-0.3561 0.491,-0.4112 0.4919,-0.4688 0.041,-2.0676 0.091,-4.1353 0.074,-6.2026 0,-0.2156 -0.4047,-0.4288 -0.6212,-0.6423 -0.1949,0.2185 -0.5702,0.4514 -0.5549,0.6546 0.1599,2.1422 0.3823,4.28 0.6105,6.6591 z m 1.1397,-6.9751 c 0.6588,0.2557 1.329,0.4869 1.974,0.7745 0.6169,0.2756 1.3268,0.4873 1.7888,0.94 1.3545,1.3293 2.5837,2.7868 3.9045,4.1543 1.868,1.9331 3.7642,3.8393 5.6733,5.7315 0.2891,0.2875 0.6985,0.4768 1.0818,0.6443 2.4013,1.0485 4.8059,2.0882 7.2202,3.1072 0.6244,0.2636 1.2719,0.497 1.9317,0.6391 0.3411,0.073 0.732,-0.083 1.2741,-0.1609 -1.6888,-1.172 -3.0697,-2.3414 -4.632,-3.1667 -2.4912,-1.3155 -4.9139,-2.6337 -6.7715,-4.8474 -0.8902,-1.0618 -2.1187,-1.8329 -3.0682,-2.8517 -1.1125,-1.1953 -2.0861,-2.5183 -3.1245,-3.7816 -1.2544,-1.5285 -3.0175,-2.0325 -4.8544,-2.2022 -0.7735,-0.071 -1.5873,0.3065 -2.3834,0.4791 0,0.1808 -0.01,0.3606 -0.014,0.5405 z m 22.4657,18.8309 c -0.506,0.2261 -1.0159,0.4568 -1.5453,0.6158 -0.2399,0.072 -0.5304,-0.024 -0.7987,-0.046 -0.5471,-0.045 -1.2623,-0.3334 -1.6111,-0.092 -1.0778,0.7465 -2.2541,0.757 -3.4622,0.9217 -2.4422,0.333 -2.7679,0.8481 -2.2552,3.1696 1.0962,-0.7457 1.4562,-2.6004 3.2503,-2.1763 -0.052,0.2942 -0.097,0.5547 -0.1975,1.1212 0.8818,-0.4633 1.5331,-0.8052 1.8918,-0.9937 0.7589,0.081 1.319,0.2646 1.8222,0.163 0.6538,-0.132 1.3048,-0.4195 1.878,-0.7697 0.6999,-0.4272 1.1588,-0.3169 1.8023,0.1841 0.6305,0.4913 1.461,0.8952 2.2442,0.9858 1.4194,0.1641 2.4351,0.6189 2.7989,2.1172 0.2575,1.0611 1.0614,1.4635 2.0912,1.5446 2.4067,0.1888 4.0959,2.0439 4.0186,4.3901 -0.032,1.0005 -0.3152,2.0631 1.0784,2.5202 0.2482,0.082 0.3866,0.8239 0.3873,1.2611 0,0.6747 -0.2043,1.3469 -0.2439,2.0247 -0.03,0.541 -0.1584,1.3705 0.126,1.5847 1.1766,0.8896 0.4673,1.8604 0.2563,2.7679 -0.1908,0.8238 -0.5759,1.6053 -0.9037,2.3941 -0.3568,0.8598 -0.3449,1.5277 0.7286,1.6328 -1.9295,3.3198 -3.8349,6.6 -5.8656,10.0945 1.6141,-0.087 4.7042,-2.6455 5.0675,-3.684 0.3802,-1.0882 0.8662,-2.1515 1.4178,-3.165 0.8052,-1.4797 1.7842,-2.8679 2.5378,-4.3711 0.3241,-0.6465 0.2515,-1.4739 -0.9399,-1.4408 0.2289,-0.5015 0.481,-0.8659 0.5604,-1.2646 0.2187,-1.1102 0.8963,-2.5994 0.4298,-3.2757 -0.9028,-1.3098 -0.505,-2.4598 -0.4504,-3.7134 0.018,-0.4196 0.064,-0.9457 -0.149,-1.2491 -0.9032,-1.2809 -1.4305,-2.6942 -1.8819,-4.1791 -0.1787,-0.59 -0.9649,-0.9819 -1.1941,-1.5727 -0.5118,-1.3209 -1.4625,-2.0034 -2.7113,-2.5238 -0.5348,-0.2229 -1.0956,-0.7884 -1.2969,-1.3281 -0.5827,-1.5599 -1.4071,-2.6275 -3.2347,-2.7157 -0.6843,-0.033 -1.5142,-0.2733 -1.9897,-0.7235 -1.226,-1.162 -2.4025,-0.7686 -3.6563,-0.2088 z m 6.015,18.7299 c 0.781,0.203 1.576,0.2155 2.176,-1.1336 -0.9505,0.064 -1.6623,0.1116 -2.3741,0.1592 0.062,0.3391 0.057,0.9378 0.1981,0.9744 z m -1.8624,-11.7937 c -0.5376,-1.1884 -1.1906,-1.364 -2.4752,-0.5302 0.7733,0.1654 1.5455,0.331 2.4752,0.5302 z m 0.8128,2.4371 c -1.0798,-0.077 -1.8964,-0.1362 -2.6596,-0.191 0.6561,1.0464 1.3584,1.1728 2.6596,0.191 z m -17.8921,42.4007 c -1.4757,1.3992 -2.9243,2.8983 -5.0763,3.4548 -1.2984,0.3358 -2.4715,0.096 -3.262,-0.9107 -1.6314,-2.0773 -3.8377,-1.8767 -5.9599,-1.5291 -2.6313,0.4311 -5.1917,1.2855 -7.8187,1.7471 -0.8085,0.142 -1.78,-0.309 -2.5962,-0.6697 -0.5147,-0.2273 -0.9264,-0.7538 -1.299,-1.2154 -0.3353,-0.4175 -0.889,-1.0692 -0.7614,-1.3725 0.3593,-0.8574 0.9359,-1.6574 2.1701,-1.3514 1.3676,0.3393 2.7552,0.6103 4.1461,0.8393 0.6466,0.1062 1.3205,0.043 2.0412,0.057 -1.7872,-0.5116 -3.4558,-1.0133 -5.1375,-1.462 -1.0933,-0.2913 -2.1526,-0.9229 -3.3496,-0.1349 -0.4154,0.2734 -1.0796,0.1894 -1.6328,0.229 -1.6903,0.1207 -3.669,1.087 -4.3709,-1.7843 -0.1025,0.078 -0.2051,0.1564 -0.3076,0.2347 -0.1385,0.4197 -0.2769,0.8395 -0.4448,1.3491 -2.1345,0.099 -4.0028,-0.7614 -5.7415,-1.9657 -0.1939,-0.1343 -0.2192,-0.5641 -0.2542,-0.8647 -0.067,-0.5751 -0.085,-1.156 -0.295,-1.8448 -0.9099,1.7058 -2.1079,1.1518 -3.1849,0.6019 -1.4801,-0.7557 -2.8975,-1.6361 -4.3283,-2.4858 -0.6529,-0.3878 -0.7893,-0.8489 -0.1205,-1.3981 0.823,-0.6758 0.8799,-1.3919 0.033,-2.1108 -1.5796,1.2331 -1.581,1.2348 -3.1644,-0.015 -0.4688,-0.3701 -0.9409,-0.7376 -1.3878,-1.1331 -0.541,-0.4787 -1.057,-0.986 -1.5912,-1.4878 0.4001,-1.2364 2.9629,-1.6188 1.3216,-3.6659 -0.5803,0.3873 -1.1292,0.7539 -1.9515,1.3026 -0.7317,-1.5495 -1.4799,-3.046 -2.1252,-4.5855 -0.1093,-0.2611 0.141,-0.776 0.3701,-1.0544 0.4746,-0.5769 1.0466,-1.0738 1.5786,-1.6036 -0.049,-0.117 -0.097,-0.2341 -0.1455,-0.3513 -0.6554,0.1383 -1.3108,0.2766 -2.2832,0.4818 -0.4839,-1.6536 -1.0097,-3.3691 -1.4836,-5.0988 -0.2926,-1.0687 0.2542,-1.4863 1.2768,-1.5037 0.3584,-0.01 0.7148,-0.1339 1.1047,-0.5044 -0.5711,-0.1104 -1.1424,-0.2209 -1.6557,-0.32 -0.2412,-1.6843 -0.5676,-3.342 -0.6927,-5.0147 -0.1214,-1.6219 0.5859,-2.9385 1.6596,-3.66 0.2792,-1.1897 0.392,-2.1688 0.7431,-3.0531 0.5575,-1.4039 0.7368,-3.1623 2.7264,-3.4907 0.1705,-0.028 0.2934,-0.3453 0.4383,-0.5281 -0.1873,-0.1395 -0.3572,-0.3223 -0.5667,-0.407 -0.2258,-0.092 -0.4889,-0.091 -0.9346,-0.163 1.513,-2.1341 2.63,-4.4506 5.5739,-4.6576 0.2024,-0.014 0.4497,-0.075 0.5885,-0.2059 2.8872,-2.7348 6.4209,-4.4634 9.8849,-6.2739 3.7258,-1.9468 7.2394,-4.1524 10.142,-7.2348 1.7446,-1.8535 3.4358,-3.7591 5.2409,-5.5513 4.0271,-3.9988 8.7947,-5.5609 14.39,-4.1088 2.1806,0.5659 4.3659,1.1322 6.5111,1.8191 2.2871,0.732 3.8886,2.3359 5.2053,4.3158 1.6251,2.442 3.2422,4.9081 5.0895,7.1782 2.5407,3.1198 5.8894,5.2529 9.4866,6.9973 2.3415,1.1358 4.683,2.2717 7.0245,3.4077 -0.062,0.1608 -0.125,0.3216 -0.1869,0.4823 -0.4635,0.066 -0.928,0.1329 -1.3915,0.1993 -0.03,0.097 -0.058,0.1932 -0.088,0.2898 0.2886,0.1794 0.5559,0.419 0.8685,0.5255 0.6456,0.2195 1.319,0.3527 1.9715,0.5486 1.925,0.5763 2.5873,1.5536 2.6247,3.6662 0,0.2615 0.3702,0.6054 0.6525,0.7565 0.8767,0.4709 1.4256,1.0731 1.5996,2.1278 0.2131,1.2958 0.6506,2.5548 1.0109,3.9087 -0.2871,0.1592 -0.5987,0.3319 -1.1359,0.6291 0.4759,0.3088 0.7793,0.648 1.127,0.7033 1.0067,0.1598 1.3274,0.7803 1.3524,1.6842 0.01,0.2555 0.032,0.5105 0.034,0.766 0.015,1.4037 0.024,2.8077 0.038,4.3438 -0.549,0.079 -1.0372,0.1486 -1.5253,0.2185 -0.017,0.092 -0.033,0.1839 -0.05,0.276 0.3447,0.1942 0.6905,0.3883 1.0375,0.5832 0.068,2.2487 -0.6503,4.7248 -2.268,7.7776 -0.5057,-0.077 -1.0267,-0.1555 -1.7824,-0.27 0.249,0.3998 0.3287,0.7076 0.4927,0.7631 1.3642,0.4596 1.1756,1.4595 0.9125,2.4916 -0.3966,1.5594 -0.9726,3.0122 -2.3859,3.9085 -0.8794,-0.3212 -1.7261,-0.6304 -2.5728,-0.9396 -0.1019,0.1462 -0.2038,0.2926 -0.3068,0.4392 0.3447,0.3947 0.646,0.8395 1.0406,1.1741 0.7458,0.6307 1.1353,1.1537 0.2175,2.0314 -1.2883,1.2323 -2.4498,2.5962 -3.6904,3.9296 -0.6712,-0.5987 -1.2383,-1.1037 -1.8054,-1.6087 -0.1285,0.088 -0.2582,0.1765 -0.3868,0.2647 0.2981,0.751 0.6705,1.4838 0.8611,2.2612 0.093,0.3781 -0.01,1.0533 -0.2684,1.2283 -1.5496,1.0427 -3.1696,1.9786 -4.5634,2.8268 -0.7243,-0.4561 -1.2248,-0.8411 -1.7836,-1.0952 -0.297,-0.1347 -0.6981,-0.042 -1.052,-0.052 0.01,0.3203 -0.036,0.6557 0.043,0.9579 0.1505,0.5701 0.3729,1.1212 0.6914,2.0459 -1.8044,0.5064 -3.5277,1.0338 -5.2794,1.4353 -0.2701,0.062 -0.6919,-0.4306 -1.0082,-0.7072 -0.4302,-0.3747 -0.8258,-0.7886 -1.2362,-1.1857 -0.1045,0.08 -0.2089,0.1605 -0.3145,0.2411 0.1552,0.7311 0.3116,1.4619 0.5338,2.5087 -2.658,-0.3159 -5.1405,-0.5692 -7.6096,-0.9206 -1.4144,-0.2014 -2.56,0.208 -3.5871,1.2201 1.4714,-0.2983 2.9551,-1.1042 4.3463,0.3214 z m 39.9197,-10.3097 c 0,0.01 0,0.014 -0.01,0.021 0,0 -0.01,0 -0.012,-0.01 z m -0.01,-0.017 c 0,0.01 0.01,0.011 0.01,0.017 0,0 -0.017,0.015 -0.013,0.01 0,-0.01 0,-0.017 0.01,-0.026 z m 0,0 c -1.9059,-5.1077 -3.8118,-10.2156 -5.8105,-15.5706 -0.4951,0.4703 -0.6659,0.6324 -0.6275,0.5956 0.5719,-3.0443 1.1883,-6.3232 1.8138,-9.6582 0.063,-0.01 0.2606,-0.104 0.3895,-0.046 3.2916,1.4942 6.8823,1.0611 10.3252,1.5432 2.7857,0.3901 5.6594,0.6249 7.7392,2.5864 1.6335,1.5394 3.0928,3.4808 4.004,5.5227 1.8402,4.1285 1.8458,8.4635 -0.101,12.6163 -1.1916,2.5412 -3.6101,3.6645 -6.1954,3.8964 -3.569,0.3205 -7.0193,-0.5985 -10.2907,-2.0475 -0.7612,-0.337 -1.097,-0.2051 -1.2466,0.5617 z m 8.0846,29.3821 c -0.7362,-0.2751 -1.2905,-0.4828 -2.0765,-0.7767 0.5323,1.4964 0.9109,1.6394 2.0765,0.7767 z m -2.896,1.3643 c -0.2308,-0.016 -0.4978,0.4837 -0.7484,0.7463 0.64,0.5809 1.2811,1.1617 2.0395,1.8484 0.1429,-1.5589 -0.3633,-2.5286 -1.2911,-2.5947 z m -3.824,-26.6366 c 0.1374,0.3501 0.2208,0.9564 0.4219,0.9985 0.4556,0.095 0.9689,-0.088 1.4582,-0.1585 l -1.5061,-1.1621 c -0.1247,0.1073 -0.2493,0.2147 -0.374,0.3221 z m 19.6626,-5.5834 c 1.493,3.5314 2.1449,6.8808 -0.3018,10.2449 -3.2761,4.5056 -4.9026,9.8127 -7.0647,14.8668 -1.5051,3.5181 -3.3277,6.9109 -5.1699,10.2712 -1.5337,2.7976 -2.1787,2.8061 -4.2576,0.4663 -1.0373,-1.1674 -2.0755,-2.341 -3.0128,-3.587 -0.2639,-0.3517 -0.2095,-0.9662 -0.243,-1.4643 -0.065,-0.9517 -0.7275,-1.4805 -1.5728,-1.0587 -0.9353,0.4666 -1.7757,1.1234 -2.8121,1.7981 1.2474,0.9905 2.106,-0.1236 2.7436,-0.1846 1.3021,2.2466 2.5402,4.3826 3.8908,6.7116 -3.137,4.1784 -6.2605,8.6278 -10.9455,11.8486 -4.6118,3.1704 -9.6003,5.1777 -14.99,6.2436 -3.5622,0.7045 -7.1527,0.4583 -10.5401,-1.0556 -0.4428,-0.1983 -0.751,-0.6991 -1.1218,-1.0599 0.3797,-0.2338 0.732,-0.5554 1.1459,-0.6876 3.091,-0.989 6.2896,-1.715 9.2732,-2.9573 4.5024,-1.8747 8.328,-4.5951 10.7897,-9.1128 1.8963,-3.4795 3.2493,-7.1136 4.4571,-10.8398 0.117,-0.3613 0.2504,-0.7763 0.1806,-1.1275 -0.1655,-0.827 -0.198,-1.9592 -0.7392,-2.3717 -0.9769,-0.7455 -2.1805,-0.2126 -3.0459,0.5423 -1.6694,1.4565 -3.2534,3.0128 -4.868,4.5318 -0.2478,0.2333 -0.5036,0.4671 -0.7071,0.7377 -0.8282,1.1025 -1.7559,1.1176 -2.8942,0.4397 -1.6113,-0.9592 -1.8391,-0.8663 -2.7768,0.7618 -0.8513,1.4779 -1.6575,2.9827 -2.5378,4.4427 -0.4055,0.6717 -0.9263,1.1793 -1.8939,0.9557 -0.3443,-0.079 -0.9239,0.2099 -1.1813,0.5126 -1.3257,1.5562 -2.5361,3.2121 -3.8816,4.75 -0.7133,0.8147 -1.6196,1.4605 -2.438,2.1823 -0.1302,-0.028 -0.2604,-0.055 -0.3918,-0.083 0.1212,-0.9975 0.017,-2.0939 0.4026,-2.9759 1.7275,-3.9531 3.6714,-7.7972 6.6549,-11.0035 2.9915,-3.2147 5.9673,-6.4426 8.9522,-9.6634 0.1453,-0.1559 0.3538,-0.2708 0.4499,-0.4494 1.0711,-1.9877 2.4599,-3.8805 3.1174,-5.9989 1.5954,-5.1315 5.4316,-8.2674 9.3669,-11.3844 2.0548,-1.6277 4.3642,-2.7756 6.8768,-3.5231 0.037,-0.011 0.044,-0.1278 0.061,-0.208 1.8458,0.7206 3.6504,1.5783 5.5453,2.1289 3.0975,0.9 6.286,1.2016 9.4627,0.4185 2.2787,-0.5615 4.3539,-1.533 5.6106,-3.6996 0.074,-0.1272 0.2298,-0.2066 0.4066,-0.3593 z m 9.5549,-12.4361 c -0.9475,-0.8767 -1.9941,-1.6764 -2.8332,-2.6539 -2.4285,-2.8252 -5.3985,-4.8869 -8.6832,-6.573 -1.7209,-0.8827 -1.6207,-0.9286 -1.1768,-2.7106 0.3583,-1.4337 0.5285,-2.9143 0.8203,-4.5963 0.3863,0.2046 0.8272,0.3571 1.1706,0.6313 3.9048,3.1142 7.7515,6.2879 10.9884,10.1333 2.328,2.7648 2.3543,2.9965 -0.2861,5.7692 z m 2.969,-0.6626 c 3.9676,3.6731 6.0208,8.3664 7.6175,13.3514 -2.4571,-4.2275 -5.2571,-8.18 -8.8523,-11.6175 0.4377,-0.6146 0.8229,-1.1552 1.2348,-1.7339 z m 12.1581,-12.3268 c 0.095,0.482 -0.042,1.0102 -0.082,1.5188 -0.4693,-0.047 -1.0316,0.059 -1.3918,-0.1636 -3.1133,-1.9162 -6.178,-3.9099 -9.2837,-5.8373 -0.897,-0.556 -1.8796,-0.9723 -2.9457,-1.5151 0.4001,-1.3185 0.7571,-2.4966 1.2386,-4.0877 2.6183,1.866 5.1096,3.5431 7.4857,5.3697 1.5132,1.1635 2.8621,2.5425 4.2704,3.8392 0.2789,0.2563 0.6445,0.5486 0.7086,0.876" /><text
       transform="scale(1,-1)"
       id="text4278"
       y="-4696.2056"
       x="1170.6057"
       style="font-style:normal;font-weight:normal;font-size:2.2163px;line-height:0%;font-family:sans-serif;letter-spacing:0px;word-spacing:0px;fill:#95423f;fill-opacity:1;stroke:none;stroke-width:0.184691px;stroke-linecap:butt;stroke-linejoin:miter;stroke-opacity:1"
       xml:space="preserve"><tspan
         style="font-style:normal;font-variant:normal;font-weight:normal;font-stretch:normal;font-size:75.2377px;line-height:125%;font-family:Kefa;-inkscape-font-specification:'Kefa, Normal';text-align:start;writing-mode:lr-tb;text-anchor:start;fill:#95423f;fill-opacity:1;stroke-width:0.184691px"
         y="-4696.2056"
         x="1170.6057"
         id="tspan4280"
         sodipodi:role="line"><tspan
   id="tspan4282"
   style="fill:#f9f9f9;fill-opacity:1;stroke-width:0.184691px">Idiomatic</tspan> <tspan
   style="fill:#c8423e;fill-opacity:1"
   id="tspan1">Rust</tspan></tspan></text><text
       xml:space="preserve"
       style="font-style:normal;font-weight:normal;font-size:2.2163px;line-height:0%;font-family:sans-serif;letter-spacing:0px;word-spacing:0px;fill:#b3b3b3;fill-opacity:1;stroke:none;stroke-width:0.184691px;stroke-linecap:butt;stroke-linejoin:miter;stroke-opacity:1"
       x="1170.5701"
       y="-4661.561"
       id="text4294"
       transform="scale(1,-1)"><tspan
         sodipodi:role="line"
         id="tspan4296"
         x="1170.5701"
         y="-4661.561"
         style="font-style:normal;font-variant:normal;font-weight:normal;font-stretch:normal;font-size:24.3846px;line-height:125%;font-family:Kefa;-inkscape-font-specification:'Kefa, Normal';text-align:start;writing-mode:lr-tb;text-anchor:start;fill:#b3b3b3;fill-opacity:1;stroke-width:0.184691px">Guidelines for writing elegant Rust programs</tspan></text></g></svg>
